<?xml version="1.0" encoding="UTF-8"?>
<svg version="1.1" xmlns="http://www.w3.org/2000/svg" width="256" height="256">
<path d="M0 0 C7.77736806 1.94787077 14.19281283 8.12083954 19.49609375 13.83984375 C22.25844776 16.6738626 24.26659467 17.78349919 28.14176941 17.87136841 C29.35487289 17.90545555 29.35487289 17.90545555 30.59248352 17.94023132 C31.47615097 17.95495987 32.35981842 17.96968842 33.27026367 17.98486328 C34.20394775 18.00775925 35.13763184 18.03065521 36.09960938 18.054245 C39.19388943 18.12605228 42.28814668 18.18192088 45.3828125 18.234375 C46.44023462 18.25355862 47.49765675 18.27274223 48.58712196 18.29250717 C54.18530834 18.39250794 59.78353531 18.47942661 65.38208008 18.55664062 C71.15880028 18.63911882 76.93347192 18.76850765 82.70904064 18.9085865 C87.15526993 19.007516 91.60149853 19.07043897 96.04848671 19.12377548 C98.17730717 19.15568101 100.30596957 19.20123127 102.43419456 19.26083755 C113.69913549 19.99042257 113.69913549 19.99042257 124.17526245 16.80032349 C126.16941522 14.81362581 127.62602145 12.88988645 129.15234375 10.5390625 C131.02593029 9.02578106 132.93681447 7.55583901 134.90234375 6.1640625 C135.8046875 5.51695313 136.70703125 4.86984375 137.63671875 4.203125 C141.37717487 1.72884813 143.86100809 0.26268464 148.40234375 0.4140625 C149.63984375 0.4553125 150.87734375 0.4965625 152.15234375 0.5390625 C157.84346785 10.45188111 160.67132194 20.99783135 162.02734375 32.2890625 C162.78807165 37.93228038 164.64121779 41.94681727 167.71484375 46.7109375 C171.48298541 54.12434663 171.446025 62.14316058 171.42700195 70.29418945 C171.43211288 71.43690308 171.43722382 72.5796167 171.44248962 73.75695801 C171.45632677 77.51380736 171.45543311 81.27047203 171.453125 85.02734375 C171.4570154 87.65374316 171.46135077 90.28014194 171.46611023 92.90653992 C171.47430198 98.40475078 171.47342979 103.90291021 171.46801758 109.40112305 C171.46198423 115.7285257 171.47428025 122.05570562 171.49558765 128.38307029 C171.51542624 134.50251262 171.51836567 140.62185192 171.51485252 146.74132347 C171.5153638 149.32991241 171.520565 151.91850506 171.53066444 154.50707436 C171.54308797 158.13680486 171.5362011 161.76602873 171.5246582 165.39575195 C171.53230194 166.45120712 171.53994568 167.50666229 171.54782104 168.59410095 C171.45088839 182.47933839 167.59803159 194.91285151 158.15234375 205.2890625 C147.55621342 215.12580349 136.08030796 217.8398102 122.15234375 218.5390625 C121.05535156 218.4771875 119.95835937 218.4153125 118.828125 218.3515625 C116.11345214 218.25647709 116.11345214 218.25647709 114.5703125 220.04296875 C114.16425781 220.72230469 113.75820312 221.40164062 113.33984375 222.1015625 C109.61937855 227.6330478 104.55634842 232.40439428 98.15234375 234.5390625 C90.76223713 235.04008668 85.31382775 233.75882786 79.21484375 229.4765625 C76.35527194 226.79029807 76.17034258 226.04302968 76.02734375 222.0390625 C76.15234375 218.5390625 76.15234375 218.5390625 77.15234375 216.5390625 C73.19234375 216.8690625 69.23234375 217.1990625 65.15234375 217.5390625 C65.37921875 218.5909375 65.60609375 219.6428125 65.83984375 220.7265625 C66.19494944 225.05885188 65.90076636 226.25868712 63.15234375 229.5390625 C57.66750892 233.74021258 54.14641062 234.59193429 47.34765625 234.8671875 C41.91527111 234.05522958 37.87877067 230.73796767 33.90234375 227.1640625 C33.0515625 226.41382813 32.20078125 225.66359375 31.32421875 224.890625 C29.11359154 222.49710418 28.13168706 220.61855312 27.15234375 217.5390625 C25.8478125 217.58546875 24.54328125 217.631875 23.19921875 217.6796875 C7.00153549 218.08765443 -4.83773473 215.84529885 -17.0703125 204.47265625 C-27.89027728 193.16730987 -30.16982135 179.55315527 -30.10644531 164.41479492 C-30.10994995 163.36278397 -30.11345459 162.31077301 -30.11706543 161.22688293 C-30.12579769 157.78269662 -30.12006245 154.33871931 -30.11328125 150.89453125 C-30.11463064 148.4775641 -30.11657346 146.06059721 -30.11907959 143.64363098 C-30.12201961 138.5894613 -30.11777046 133.53536257 -30.10839844 128.48120117 C-30.09702309 122.03595145 -30.1035585 115.59086868 -30.11554337 109.14562511 C-30.122808 104.15675117 -30.12045267 99.16791609 -30.11528778 94.17904091 C-30.11396303 91.80423271 -30.11555733 89.42942087 -30.12024689 87.05461693 C-30.1710117 54.11747277 -30.1710117 54.11747277 -23.97265625 42.9765625 C-23.63363281 42.31849609 -23.29460938 41.66042969 -22.9453125 40.98242188 C-21.39526275 38.04439982 -19.9057641 35.60589718 -17.71484375 33.0859375 C-15.21257801 29.67280516 -14.64452342 26.45141916 -13.84765625 22.3515625 C-8.95416229 -0.41647266 -8.95416229 -0.41647266 0 0 Z " fill="#FCAC48" transform="translate(56.84765625,8.4609375)"/>
<path d="M0 0 C7.77736806 1.94787077 14.19281283 8.12083954 19.49609375 13.83984375 C22.25844776 16.6738626 24.26659467 17.78349919 28.14176941 17.87136841 C29.35487289 17.90545555 29.35487289 17.90545555 30.59248352 17.94023132 C31.47615097 17.95495987 32.35981842 17.96968842 33.27026367 17.98486328 C34.20394775 18.00775925 35.13763184 18.03065521 36.09960938 18.054245 C39.19388943 18.12605228 42.28814668 18.18192088 45.3828125 18.234375 C46.44023462 18.25355862 47.49765675 18.27274223 48.58712196 18.29250717 C54.18530834 18.39250794 59.78353531 18.47942661 65.38208008 18.55664062 C71.15880028 18.63911882 76.93347192 18.76850765 82.70904064 18.9085865 C87.15526993 19.007516 91.60149853 19.07043897 96.04848671 19.12377548 C98.17730717 19.15568101 100.30596957 19.20123127 102.43419456 19.26083755 C113.69913549 19.99042257 113.69913549 19.99042257 124.17526245 16.80032349 C126.16941522 14.81362581 127.62602145 12.88988645 129.15234375 10.5390625 C131.02593029 9.02578106 132.93681447 7.55583901 134.90234375 6.1640625 C135.8046875 5.51695313 136.70703125 4.86984375 137.63671875 4.203125 C141.37717487 1.72884813 143.86100809 0.26268464 148.40234375 0.4140625 C149.63984375 0.4553125 150.87734375 0.4965625 152.15234375 0.5390625 C157.84346785 10.45188111 160.67132194 20.99783135 162.02734375 32.2890625 C162.78807165 37.93228038 164.64121779 41.94681727 167.71484375 46.7109375 C171.48298541 54.12434663 171.446025 62.14316058 171.42700195 70.29418945 C171.43211288 71.43690308 171.43722382 72.5796167 171.44248962 73.75695801 C171.45632677 77.51380736 171.45543311 81.27047203 171.453125 85.02734375 C171.4570154 87.65374316 171.46135077 90.28014194 171.46611023 92.90653992 C171.47430198 98.40475078 171.47342979 103.90291021 171.46801758 109.40112305 C171.46198423 115.7285257 171.47428025 122.05570562 171.49558765 128.38307029 C171.51542624 134.50251262 171.51836567 140.62185192 171.51485252 146.74132347 C171.5153638 149.32991241 171.520565 151.91850506 171.53066444 154.50707436 C171.54308797 158.13680486 171.5362011 161.76602873 171.5246582 165.39575195 C171.53230194 166.45120712 171.53994568 167.50666229 171.54782104 168.59410095 C171.45088839 182.47933839 167.59803159 194.91285151 158.15234375 205.2890625 C150.44770977 212.57439667 140.04379598 217.76132298 129.33984375 217.6015625 C128.54964844 217.59253906 127.75945312 217.58351562 126.9453125 217.57421875 C126.05779297 217.55681641 126.05779297 217.55681641 125.15234375 217.5390625 C125.06597656 216.78882813 124.97960937 216.03859375 124.890625 215.265625 C123.43310428 204.64845575 119.75539266 194.51992634 111.15234375 187.5390625 C106.86470104 186.02664058 103.49182067 186.92442639 99.15234375 187.9765625 C95.04190359 188.96430836 91.38704536 189.73956921 87.15234375 189.5390625 C87.15234375 188.8790625 87.15234375 188.2190625 87.15234375 187.5390625 C87.7851123 187.38872559 88.41788086 187.23838867 89.06982422 187.08349609 C101.42992592 184.12592428 113.57767427 180.95764763 125.5703125 176.73828125 C131.67495509 174.69452413 136.76317201 174.44370173 143.15234375 174.5390625 C141.83234375 171.8990625 140.51234375 169.2590625 139.15234375 166.5390625 C139.91417969 166.19875 140.67601562 165.8584375 141.4609375 165.5078125 C149.56934828 161.70161718 157.91166045 157.5581931 161.71484375 149.0390625 C161.93140625 147.8015625 161.93140625 147.8015625 162.15234375 146.5390625 C161.34796875 146.3740625 160.54359375 146.2090625 159.71484375 146.0390625 C152.13217757 142.84636095 147.36882337 137.73115027 143.83984375 130.3515625 C142.91971981 128.09046248 142.0239693 125.8192972 141.15234375 123.5390625 C140.40984375 121.88583984 140.40984375 121.88583984 139.65234375 120.19921875 C136.4751694 112.246827 136.4751694 112.246827 138.22265625 107.83984375 C139.42834799 106.03130614 140.69373528 104.26168884 142.00390625 102.52734375 C150.46153621 90.76354936 155.62087984 73.95123272 155.15234375 59.5390625 C154.16234375 60.0340625 154.16234375 60.0340625 153.15234375 60.5390625 C153.15347168 59.93658691 153.15459961 59.33411133 153.15576172 58.71337891 C153.0939897 44.5622161 151.51069159 32.66455676 146.15234375 19.5390625 C142.92501622 19.80297947 141.9744752 20.71720724 139.63671875 23.05859375 C138.71428791 24.14704535 137.80339458 25.2453469 136.90234375 26.3515625 C136.18099243 27.21539551 136.18099243 27.21539551 135.44506836 28.09667969 C131.4987674 32.90703357 128.13209533 37.95044433 124.90625 43.2734375 C122.91991006 45.83931092 122.27666897 46.1391025 119.15234375 46.5390625 C118.3221875 46.78785156 117.49203125 47.03664062 116.63671875 47.29296875 C110.9265037 48.98156091 106.10245709 49.87586137 100.15234375 49.5390625 C99.76369141 50.35890625 99.76369141 50.35890625 99.3671875 51.1953125 C97.95810496 53.91379971 96.36306638 56.45861932 94.71484375 59.0390625 C93.81958984 60.44671875 93.81958984 60.44671875 92.90625 61.8828125 C91.3951823 64.1712892 89.82642469 66.36838875 88.15234375 68.5390625 C87.06824219 68.35601562 85.98414063 68.17296875 84.8671875 67.984375 C81.36587235 67.53602177 78.16734555 67.63251025 74.65625 67.96875 C59.44365651 69.24111287 59.44365651 69.24111287 55.26318359 66.13574219 C51.86298984 62.08815508 50.07976961 57.40943967 48.15234375 52.5390625 C46.5876225 50.16191442 46.5876225 50.16191442 45.15234375 48.5390625 C44.82234375 48.8690625 44.49234375 49.1990625 44.15234375 49.5390625 C38.3691799 49.84343954 33.7108282 49.12720091 28.15234375 47.5390625 C28.49265625 48.0753125 28.83296875 48.6115625 29.18359375 49.1640625 C32.57994001 54.65602666 35.62892012 60.27332533 38.52734375 66.0390625 C38.88505859 66.74546875 39.24277344 67.451875 39.61132812 68.1796875 C42.15234375 73.29143823 42.15234375 73.29143823 42.15234375 75.5390625 C42.81234375 75.8690625 43.47234375 76.1990625 44.15234375 76.5390625 C43.40210937 77.01214844 42.651875 77.48523438 41.87890625 77.97265625 C35.54220201 82.06677373 29.90981933 86.28329867 24.40625 91.4609375 C17.81399789 97.5390625 17.81399789 97.5390625 15.15234375 97.5390625 C15.60609375 96.7140625 16.05984375 95.8890625 16.52734375 95.0390625 C17.50845843 91.67434073 17.50845843 91.67434073 16.01953125 89.5 C14.95693242 88.1294015 13.86084898 86.78400551 12.73046875 85.46875 C9.76165188 81.83856303 8.89210887 79.22329034 9.15234375 74.5390625 C11.13234375 74.0440625 11.13234375 74.0440625 13.15234375 73.5390625 C12.80171875 72.9615625 12.45109375 72.3840625 12.08984375 71.7890625 C11.00316968 69.18104474 11.22169242 68.14488621 12.15234375 65.5390625 C14.79234375 65.5390625 17.43234375 65.5390625 20.15234375 65.5390625 C20.48234375 66.1990625 20.81234375 66.8590625 21.15234375 67.5390625 C18.84234375 67.5390625 16.53234375 67.5390625 14.15234375 67.5390625 C15.47234375 70.5090625 16.79234375 73.4790625 18.15234375 76.5390625 C15.18234375 77.0340625 15.18234375 77.0340625 12.15234375 77.5390625 C12.72498385 78.7939972 13.3110543 80.04280628 13.90234375 81.2890625 C14.38960937 82.33320313 14.38960937 82.33320313 14.88671875 83.3984375 C16.33769356 85.85255538 18.07467182 87.60106599 20.15234375 89.5390625 C22.40276637 87.93548596 24.65269434 86.33122314 26.90234375 84.7265625 C27.85367188 84.04883789 27.85367188 84.04883789 28.82421875 83.35742188 C31.96086204 81.11929619 35.08431333 78.87107552 38.15234375 76.5390625 C31.66623568 60.07432663 23.76838717 44.77386963 13.02734375 30.6640625 C12.6195166 30.12821533 12.21168945 29.59236816 11.79150391 29.0402832 C9.13213394 25.61917605 6.39437861 22.4196902 3.15234375 19.5390625 C2.16234375 19.5390625 1.17234375 19.5390625 0.15234375 19.5390625 C-6.81789093 33.27208439 -6.52402667 46.38836507 -5.84765625 61.5390625 C-7.84765625 60.5390625 -7.84765625 60.5390625 -8.84765625 57.5390625 C-8.24850543 73.3566441 -4.36857617 89.55925563 4.65234375 102.7265625 C7.17857155 106.84795992 7.17857155 106.84795992 7.07421875 109.59765625 C6.28665918 112.01985982 5.23079858 114.23049512 4.15234375 116.5390625 C3.47633443 118.48057736 2.80104181 120.42236961 2.13745117 122.36816406 C-0.41435053 129.6871144 -3.28613948 136.94150998 -8.84765625 142.5390625 C-11.375 143.671875 -11.375 143.671875 -13.84765625 144.5390625 C-15.33265625 145.5290625 -15.33265625 145.5290625 -16.84765625 146.5390625 C-16.58305857 150.90492429 -14.83323962 153.46990031 -12.01171875 156.625 C-7.47677305 160.63605305 -2.08720671 163.54614421 3.15234375 166.5390625 C1.27734375 171.2890625 1.27734375 171.2890625 0.15234375 173.5390625 C1.42464844 173.74660156 2.69695313 173.95414063 4.0078125 174.16796875 C14.61617443 175.99268028 24.6348566 178.45545154 34.79077148 182.03027344 C40.80325838 184.13879335 46.68299612 185.73658456 52.94921875 186.93359375 C53.67625 187.13339844 54.40328125 187.33320313 55.15234375 187.5390625 C55.48234375 188.1990625 55.81234375 188.8590625 56.15234375 189.5390625 C48.88360999 189.04932512 41.94408766 188.22201719 34.84375 186.55078125 C32.02775554 186.30243462 32.02775554 186.30243462 29.55859375 188.12890625 C21.34007855 196.3607632 17.67917494 206.45092829 15.15234375 217.5390625 C3.69664438 218.42027014 -6.23024534 213.87766707 -14.84765625 206.5390625 C-24.78709918 197.29835018 -29.11543154 186.23084648 -30.03391266 172.81938744 C-30.10460883 170.01606897 -30.11818487 167.21897327 -30.10644531 164.41479492 C-30.10994995 163.36278397 -30.11345459 162.31077301 -30.11706543 161.22688293 C-30.12579769 157.78269662 -30.12006245 154.33871931 -30.11328125 150.89453125 C-30.11463064 148.4775641 -30.11657346 146.06059721 -30.11907959 143.64363098 C-30.12201961 138.5894613 -30.11777046 133.53536257 -30.10839844 128.48120117 C-30.09702309 122.03595145 -30.1035585 115.59086868 -30.11554337 109.14562511 C-30.122808 104.15675117 -30.12045267 99.16791609 -30.11528778 94.17904091 C-30.11396303 91.80423271 -30.11555733 89.42942087 -30.12024689 87.05461693 C-30.1710117 54.11747277 -30.1710117 54.11747277 -23.97265625 42.9765625 C-23.63363281 42.31849609 -23.29460938 41.66042969 -22.9453125 40.98242188 C-21.39526275 38.04439982 -19.9057641 35.60589718 -17.71484375 33.0859375 C-15.21257801 29.67280516 -14.64452342 26.45141916 -13.84765625 22.3515625 C-8.95416229 -0.41647266 -8.95416229 -0.41647266 0 0 Z " fill="#2D172B" transform="translate(56.84765625,8.4609375)"/>
<path d="M0 0 C1.32 0.33 2.64 0.66 4 1 C4.061875 1.86625 4.061875 1.86625 4.125 2.75 C5.42853331 6.10194279 8.04092628 7.11122954 11 9 C11 9.66 11 10.32 11 11 C12.95820496 12.23553408 14.96803361 13.38994429 17 14.5 C19.03196639 15.61005571 21.04179504 16.76446592 23 18 C23 18.66 23 19.32 23 20 C23.8353125 20.25007813 24.670625 20.50015625 25.53125 20.7578125 C28.71905257 21.89939045 31.52496523 23.23783937 34.50317383 24.81738281 C42.46230817 29.03293117 50.20013238 31.94241091 59 34 C59.70995117 34.18046875 60.41990234 34.3609375 61.15136719 34.546875 C92.31483323 42.45462121 123.72334545 36.45855344 151.6015625 20.76171875 C157.28007287 17.35188367 162.18020639 13.16037735 167.01953125 8.6640625 C169.91287299 6.07787762 172.73075356 4.06221524 176 2 C175.67 1.34 175.34 0.68 175 0 C176.65 0 178.3 0 180 0 C179.89753948 4.20088136 178.8883375 6.52159381 176.0625 9.5 C170.7716838 14.43007873 164.4592743 17.83718293 158 21 C158.495 21.598125 158.99 22.19625 159.5 22.8125 C161 25 161 25 161 28 C160.27941406 28.0515625 159.55882812 28.103125 158.81640625 28.15625 C149.16931074 29.17539094 140.40507577 31.9110568 131.23657227 34.9921875 C112.50423111 41.27135 112.50423111 41.27135 105 41 C105 41.66 105 42.32 105 43 C105.54938232 42.87359131 106.09876465 42.74718262 106.66479492 42.61694336 C109.17011536 42.0466759 111.67863919 41.49197471 114.1875 40.9375 C115.05181641 40.73833984 115.91613281 40.53917969 116.80664062 40.33398438 C125.26917556 38.48584456 125.26917556 38.48584456 129 40 C135.80669121 45.65935122 141.33323523 54.23212283 143 63 C143.12205329 65.67540816 143.04467313 68.31961238 143 71 C140 72 140 72 137.1875 71.5625 C134.01942661 71.65216725 134.01942661 71.65216725 132.59375 73.53125 C131.62303903 74.93338807 130.66270661 76.34274837 129.7109375 77.7578125 C126.2491748 82.29446042 121.42638048 86.19120651 116 88 C108.60989338 88.50102418 103.161484 87.21976536 97.0625 82.9375 C94.20292819 80.25123557 94.01799883 79.50396718 93.875 75.5 C94 72 94 72 95 70 C89.06 70.495 89.06 70.495 83 71 C83.226875 72.051875 83.45375 73.10375 83.6875 74.1875 C84.04260569 78.51978938 83.74842261 79.71962462 81 83 C75.51516517 87.20115008 71.99406687 88.05287179 65.1953125 88.328125 C59.76292736 87.51616708 55.72642692 84.19890517 51.75 80.625 C50.89921875 79.87476563 50.0484375 79.12453125 49.171875 78.3515625 C47 76 47 76 45 71 C41.04 71 37.08 71 33 71 C34.68492606 59.05234246 38.83462638 49.97804113 47 41 C50 39 50 39 52.53125 39.20703125 C54.00078125 39.50673828 54.00078125 39.50673828 55.5 39.8125 C61.32562602 40.91368541 67.09125014 41.5580069 73 42 C72.10023437 41.79246094 71.20046875 41.58492187 70.2734375 41.37109375 C62.08124706 39.42558415 54.11493681 37.09568514 46.125 34.4375 C36.51325608 31.26210188 27.02648799 29.29972992 17 28 C18.32 25.36 19.64 22.72 21 20 C20.26523437 19.72285156 19.53046875 19.44570312 18.7734375 19.16015625 C10.72952136 15.79530682 4.46500568 10.53738901 0 3 C0 2.01 0 1.02 0 0 Z " fill="#F5C6A9" transform="translate(39,155)"/>
<path d="M0 0 C0.33 0 0.66 0 1 0 C0.97679687 0.85078125 0.95359375 1.7015625 0.9296875 2.578125 C0.55849768 27.50087037 3.59342733 53.57412946 16.7421875 75.1953125 C18.22511699 78.50196894 18.11936388 79.61037697 17 83 C16.67644531 83.98355469 16.35289063 84.96710938 16.01953125 85.98046875 C11.84729668 97.06592047 7.67877419 106.85716228 -3 113 C-3.99 113 -4.98 113 -6 113 C-5.97137431 119.18314828 -4.84607092 123.34153988 -0.88671875 128.14453125 C2.36968876 131.3470024 6.09737373 133.66585781 10 136 C11.485 136.99 11.485 136.99 13 138 C12.4118332 141.02485781 11.75929472 144.01386614 11 147 C16.92777155 148.58119541 22.80807606 149.67224486 28.875 150.5625 C30.56035259 150.81072036 32.24527588 151.06187886 33.9296875 151.31640625 C34.66429199 151.42412354 35.39889648 151.53184082 36.15576172 151.64282227 C38 152 38 152 40 153 C39.30939434 157.15409768 37.14839054 160.56472332 35.125 164.1875 C31.08574795 171.59145527 28.08270741 178.55488222 27 187 C14.28324981 186.0580185 4.93640365 180.40543192 -3.75 171.25 C-12.69880678 160.47405866 -14.31552912 147.42898489 -14.25878906 133.87573242 C-14.2622937 132.82372147 -14.26579834 131.77171051 -14.26940918 130.68782043 C-14.27814144 127.24363412 -14.2724062 123.79965681 -14.265625 120.35546875 C-14.26697439 117.9385016 -14.26891721 115.52153471 -14.27142334 113.10456848 C-14.27436336 108.0503988 -14.27011421 102.99630007 -14.26074219 97.94213867 C-14.24936684 91.49688895 -14.25590225 85.05180618 -14.26788712 78.60656261 C-14.27515175 73.61768867 -14.27279642 68.62885359 -14.26763153 63.63997841 C-14.26630678 61.26517021 -14.26790108 58.89035837 -14.27259064 56.51555443 C-14.32335545 23.57841027 -14.32335545 23.57841027 -8.125 12.4375 C-7.78597656 11.77943359 -7.44695313 11.12136719 -7.09765625 10.44335938 C-5.08615271 6.63068061 -2.87475763 3.24188036 0 0 Z " fill="#362F41" transform="translate(41,39)"/>
<path d="M0 0 C-4.75 4 -4.75 4 -7 4 C-9.53662587 10.25701048 -10.64667854 15.23143126 -10 22 C-8.68772566 25.03465702 -8.68772566 25.03465702 -7 27 C-7 26.01 -7 25.02 -7 24 C-6.68911632 22.32900023 -6.35919668 20.66128463 -6 19 C-5.34 19.99 -4.68 20.98 -4 22 C-3.34 22.66 -2.68 23.32 -2 24 C-1.443125 23.484375 -0.88625 22.96875 -0.3125 22.4375 C2 21 2 21 4.5625 21.125 C7.1127402 22.04047084 8.2924841 22.93300707 10 25 C10.66 23.35 11.32 21.7 12 20 C12.5534764 22.07553648 13 23.84365964 13 26 C14.32 23.69 15.64 21.38 17 19 C17.99 20.98 17.99 20.98 19 23 C20.03125 22.21625 21.0625 21.4325 22.125 20.625 C27.96016749 16.50537175 33.89622867 14.82929848 41 16 C43.70410827 17.13961685 46.20047284 18.43505672 48.73828125 19.90625 C51.18145472 21.29023847 51.18145472 21.29023847 55 21 C55.99 22.98 55.99 22.98 57 25 C57.33 23.35 57.66 21.7 58 20 C59.33333333 22 60.66666667 24 62 26 C62.495 25.34 62.99 24.68 63.5 24 C67.1288272 21.09693824 69.43212875 21.62558432 74 22 C74.33 22.33 74.66 22.66 75 23 C75.33 21.68 75.66 20.36 76 19 C77.485 19.495 77.485 19.495 79 20 C79.26218749 23.14624993 79.24754367 24.61837017 77.5 27.3125 C77.005 27.869375 76.51 28.42625 76 29 C80.19209437 25.22711506 81.74064615 22.29095898 82.375 16.6875 C81.85523509 11.57647836 80.37256892 7.06587099 76.3984375 3.60546875 C74.60680064 2.36762041 74.60680064 2.36762041 72 1 C75 0 75 0 77.875 1.0625 C83.0631578 4.27915784 85.83297656 7.52933046 87.3125 13.375 C87.539375 14.57125 87.76625 15.7675 88 17 C88.66 16.34 89.32 15.68 90 15 C90 16.98 90 18.96 90 21 C91.91740583 20.21012527 93.83389641 19.41802852 95.75 18.625 C96.81734375 18.18414062 97.8846875 17.74328125 98.984375 17.2890625 C100.74570541 16.5361622 102.49389047 15.74735265 104.19921875 14.875 C110.10550197 12.0051357 117.59096005 12.89569374 124 13 C121.44050151 15.68747341 118.63382649 17.98046713 115.75 20.3125 C112.01177682 23.31993227 112.01177682 23.31993227 108.38330078 26.45678711 C91.4152981 41.67157541 66.30066321 48.98982596 44 51 C42.89253418 51.10296387 42.89253418 51.10296387 41.76269531 51.20800781 C16.51555079 53.19274162 -8.38228141 44.32173505 -30 32 C-30 31.34 -30 30.68 -30 30 C-30.66 29.773125 -31.32 29.54625 -32 29.3125 C-35.88658628 27.6121185 -39.63679817 25.60376916 -43 23 C-43 22.34 -43 21.68 -43 21 C-44.55855981 19.64287834 -44.55855981 19.64287834 -46.5 18.375 C-47.1496875 17.92898437 -47.799375 17.48296875 -48.46875 17.0234375 C-48.9740625 16.68570313 -49.479375 16.34796875 -50 16 C-49.67 15.01 -49.34 14.02 -49 13 C-42.75174077 12.44211971 -37.72506232 13.44648337 -31.8125 15.3125 C-31.13574219 15.52543701 -30.45898438 15.73837402 -29.76171875 15.95776367 C-25.64343362 17.31286117 -21.84100212 18.96301443 -18 21 C-18 19.02 -18 17.04 -18 15 C-17.34 15 -16.68 15 -16 15 C-15.79246094 14.33613281 -15.58492187 13.67226562 -15.37109375 12.98828125 C-13.45977722 7.51024015 -11.7772769 3.84959357 -6.75 0.76171875 C-4.41086352 -0.25643217 -2.50966109 -0.38025168 0 0 Z " fill="#FCF8EB" transform="translate(92,143)"/>
<path d="M0 0 C2.20164531 2.04483296 3.70177119 3.94761458 5.0625 6.625 C5.38347656 7.23601563 5.70445312 7.84703125 6.03515625 8.4765625 C8.95722164 16.11888738 9.29357904 23.64789657 9.2746582 31.75512695 C9.27976913 32.89784058 9.28488007 34.0405542 9.29014587 35.21789551 C9.30398302 38.97474486 9.30308936 42.73140953 9.30078125 46.48828125 C9.30467165 49.11468066 9.30900702 51.74107944 9.31376648 54.36747742 C9.32195823 59.86568828 9.32108604 65.36384771 9.31567383 70.86206055 C9.30964048 77.1894632 9.3219365 83.51664312 9.3432439 89.84400779 C9.36308249 95.96345012 9.36602192 102.08278942 9.36250877 108.20226097 C9.36302005 110.79084991 9.36822125 113.37944256 9.37832069 115.96801186 C9.39074422 119.59774236 9.38385735 123.22696623 9.37231445 126.85668945 C9.38378006 128.43987221 9.38378006 128.43987221 9.39547729 130.05503845 C9.29854464 143.94027589 5.44568784 156.37378901 -4 166.75 C-11.58969358 173.89021934 -20.67145361 178.09497951 -31 179 C-31.43699219 177.47632813 -31.43699219 177.47632813 -31.8828125 175.921875 C-35.04649823 165.18915621 -39.15986963 155.58956319 -45 146 C-38.62631229 143.35817457 -32.4141899 141.96801113 -25.625 140.8125 C-24.62855469 140.63525391 -23.63210937 140.45800781 -22.60546875 140.27539062 C-15.34706805 139 -15.34706805 139 -13 139 C-13.309375 138.071875 -13.61875 137.14375 -13.9375 136.1875 C-14.625 134.125 -15.3125 132.0625 -16 130 C-15.33613281 129.61328125 -14.67226562 129.2265625 -13.98828125 128.828125 C-5.40683481 123.76695075 0.68952238 119.8368478 4 110 C4.07203984 107.86106759 4.07203984 107.86106759 3 106 C0.86958336 104.2027033 0.86958336 104.2027033 -1.75 102.625 C-8.71131234 98.22728472 -12.35094498 93.23112286 -15.25 85.625 C-15.50523437 85.00367188 -15.76046875 84.38234375 -16.0234375 83.7421875 C-18.06189449 78.54948653 -20.13371295 72.81723406 -17.9609375 67.41796875 C-17.43757813 66.68191406 -16.91421875 65.94585937 -16.375 65.1875 C-4.89079697 47.72194123 -2.07310024 27.98108852 -1.34106445 7.48779297 C-1.09907706 1.09907706 -1.09907706 1.09907706 0 0 Z " fill="#332B3E" transform="translate(219,47)"/>
<path d="M0 0 C31.68 0 63.36 0 96 0 C94.34999234 3.30001532 93.33628517 4.91757361 90.875 7.43359375 C90.25568604 8.07586914 89.63637207 8.71814453 88.99829102 9.37988281 C88.00913696 10.39840332 88.00913696 10.39840332 87 11.4375 C82.29168305 16.37660029 77.71906376 21.33457697 73.5625 26.75 C72.76070313 27.77867188 71.95890625 28.80734375 71.1328125 29.8671875 C68.89132607 32.94571444 68.89132607 32.94571444 67.4921875 36.5078125 C65.66875234 40.45706151 64.56985446 42.45789982 61 45 C56.76570211 45.87788908 52.68730474 45.9185227 48.375 45.8125 C47.26503662 45.79493652 46.15507324 45.77737305 45.01147461 45.75927734 C37.2147138 45.18200078 37.2147138 45.18200078 34.01464844 42.06811523 C32.4730956 39.77569091 31.21317743 37.47952727 30 35 C29.3709375 34.00871094 28.741875 33.01742187 28.09375 31.99609375 C27.5678125 31.15175781 27.041875 30.30742188 26.5 29.4375 C21.34814644 21.37860925 16.74218733 15.41383191 8.9765625 9.6640625 C8.32429688 9.11492188 7.67203125 8.56578125 7 8 C7 7.34 7 6.68 7 6 C6.401875 5.7525 5.80375 5.505 5.1875 5.25 C3 4 3 4 0 0 Z " fill="#332B3E" transform="translate(81,27)"/>
<path d="M0 0 C4.00119244 2.54688448 7.00177143 6.11682411 9.1171875 10.34765625 C18.19572767 11.49809079 18.19572767 11.49809079 26.4609375 8.70703125 C28.20440385 6.62437047 28.20440385 6.62437047 29.703125 4.390625 C32.06904095 0.97246466 35.13845417 -0.86085042 38.9921875 -2.40234375 C46.55774071 -3.29240883 52.45393963 -2.54644965 59.1171875 1.34765625 C63.02033678 4.79826648 66.17063381 8.11239634 67.1171875 13.34765625 C66.4159375 13.34765625 65.7146875 13.34765625 64.9921875 13.34765625 C61.71429498 14.48779278 61.278914 15.20652685 59.3671875 17.97265625 C55.58162382 23.42976753 50.49572747 28.22147626 44.1171875 30.34765625 C36.72708088 30.84868043 31.2786715 29.56742161 25.1796875 25.28515625 C22.32011569 22.59889182 22.13518633 21.85162343 21.9921875 17.84765625 C22.1171875 14.34765625 22.1171875 14.34765625 23.1171875 12.34765625 C17.1771875 12.84265625 17.1771875 12.84265625 11.1171875 13.34765625 C11.3440625 14.39953125 11.5709375 15.45140625 11.8046875 16.53515625 C12.15979319 20.86744563 11.86561011 22.06728087 9.1171875 25.34765625 C3.63235267 29.54880633 0.11125437 30.40052804 -6.6875 30.67578125 C-12.11988514 29.86382333 -16.15638558 26.54656142 -20.1328125 22.97265625 C-20.98359375 22.22242188 -21.834375 21.4721875 -22.7109375 20.69921875 C-24.92156471 18.30569793 -25.90346919 16.42714687 -26.8828125 13.34765625 C-28.8628125 13.34765625 -30.8428125 13.34765625 -32.8828125 13.34765625 C-31.1389292 7.59284137 -27.77993416 3.00453854 -22.546875 0.01171875 C-14.50239569 -3.47834766 -8.02502404 -3.87367077 0 0 Z " fill="#341F30" transform="translate(110.8828125,212.65234375)"/>
<path d="M0 0 C1.89355469 0.29614258 1.89355469 0.29614258 4 1 C5.36417914 3.61259079 6.33602226 5.91370762 7.25 8.6875 C7.51159912 9.48043457 7.77319824 10.27336914 8.04272461 11.09033203 C13.10225943 28.10472606 10.83053864 46.25942486 3 62 C2.34 62 1.68 62 1 62 C0.7525 62.598125 0.505 63.19625 0.25 63.8125 C-1.18072525 66.31626919 -2.5691582 67.48072388 -5 69 C-5.66 69 -6.32 69 -7 69 C-5.55639473 65.23557478 -3.85197041 61.67331434 -2.0625 58.0625 C4.23340479 44.27000442 5.19453975 30.00776304 4 15 C3.505 14.01 3.505 14.01 3 13 C-1.60044933 15.03804852 -3.97854446 18.07985513 -7 22 C-7.48210937 22.61101563 -7.96421875 23.22203125 -8.4609375 23.8515625 C-11.88551908 28.66181293 -12.48581989 32.59256073 -12.75390625 38.43359375 C-13.08670245 41.90418269 -14.17660723 44.06671597 -16 47 C-16.66 47 -17.32 47 -18 47 C-18 47.66 -18 48.32 -18 49 C-15.36 49 -12.72 49 -10 49 C-10.53069061 52.82097239 -11.49701566 55.06171403 -14 58 C-12.02 58 -10.04 58 -8 58 C-8.44234371 62.86578079 -10.71721563 66.48715527 -14 70 C-16.16796875 71.20703125 -16.16796875 71.20703125 -18 72 C-18.928125 71.154375 -19.85625 70.30875 -20.8125 69.4375 C-25.50423392 65.3925689 -30.72595206 62.22355914 -36 59 C-29.369772 36.20859124 -15.62395709 17.479302 0 0 Z " fill="#FCF6E6" transform="translate(200,27)"/>
<path d="M0 0 C6.12561003 0.3062805 9.49206509 3.20774089 14 7 C14.74765625 7.62519531 15.4953125 8.25039063 16.265625 8.89453125 C20.61216976 12.64231729 24.4902178 16.55000932 28.18359375 20.9375 C30.20304782 23.23055753 32.36033263 25.31988998 34.5625 27.4375 C39.58546223 32.40035841 44.59440016 37.89213719 46 45 C40.21101581 45.20674944 35.57067277 44.59162079 30 43 C30.3403125 43.53625 30.680625 44.0725 31.03125 44.625 C34.42759626 50.11696416 37.47657637 55.73426283 40.375 61.5 C40.73271484 62.20640625 41.09042969 62.9128125 41.45898438 63.640625 C44 68.75237573 44 68.75237573 44 71 C44.99 71.495 44.99 71.495 46 72 C45.24976563 72.47308594 44.49953125 72.94617188 43.7265625 73.43359375 C37.38985826 77.52771123 31.75747558 81.74423617 26.25390625 86.921875 C19.66165414 93 19.66165414 93 17 93 C17.45375 92.175 17.9075 91.35 18.375 90.5 C19.35611468 87.13527823 19.35611468 87.13527823 17.8671875 84.9609375 C16.80458867 83.590339 15.70850523 82.24494301 14.578125 80.9296875 C11.60930813 77.29950053 10.73976512 74.68422784 11 70 C12.98 69.505 12.98 69.505 15 69 C14.649375 68.4225 14.29875 67.845 13.9375 67.25 C12.85082593 64.64198224 13.06934867 63.60582371 14 61 C16.64 61 19.28 61 22 61 C22.33 61.66 22.66 62.32 23 63 C20.69 63 18.38 63 16 63 C17.32 65.97 18.64 68.94 20 72 C17.03 72.495 17.03 72.495 14 73 C14.5726401 74.2549347 15.15871055 75.50374378 15.75 76.75 C16.23726562 77.79414063 16.23726562 77.79414063 16.734375 78.859375 C18.18534981 81.31349288 19.92232807 83.06200349 22 85 C24.25042262 83.39642346 26.50035059 81.79216064 28.75 80.1875 C29.70132813 79.50977539 29.70132813 79.50977539 30.671875 78.81835938 C33.80851829 76.58023369 36.93196958 74.33201302 40 72 C33.51389193 55.53526413 25.61604342 40.23480713 14.875 26.125 C14.46717285 25.58915283 14.0593457 25.05330566 13.63916016 24.5012207 C10.97979019 21.08011355 8.24203486 17.8806277 5 15 C4.01 15 3.02 15 2 15 C-4.97023468 28.73302189 -4.67637042 41.84930257 -4 57 C-6 56 -6 56 -7 53 C-7 55.97 -7 58.94 -7 62 C-9.51760023 59.48239977 -9.25665473 57.90234314 -9.30354309 54.46562195 C-9.30263168 53.70739639 -9.30172028 52.94917084 -9.30078125 52.16796875 C-9.30506638 51.38037674 -9.3093515 50.59278473 -9.31376648 49.78132629 C-9.3195205 48.10593627 -9.32000218 46.43052126 -9.31567383 44.75512695 C-9.31255919 42.23538089 -9.33579753 39.71686238 -9.36132812 37.19726562 C-9.41760864 23.36639396 -8.11920585 11.64015596 0 0 Z " fill="#4A313C" transform="translate(55,13)"/>
<path d="M0 0 C6.45069665 0.86337871 10.51941427 7.24507177 14.24609375 12.09375 C15.31969043 13.55535583 16.38323867 15.02438674 17.4375 16.5 C18.00098145 17.28753662 18.56446289 18.07507324 19.14501953 18.88647461 C27.73638309 31.10828676 33.568608 44.1329773 39 58 C36.79665772 60.34930501 34.50435851 62.11219 31.8125 63.875 C31.02617188 64.390625 30.23984375 64.90625 29.4296875 65.4375 C25.97433061 67.65959446 22.49809569 69.84585933 19 72 C15.39363961 67.53174216 12.41963409 63.67853635 11 58 C13.97 57.505 13.97 57.505 17 57 C16.505 56.236875 16.01 55.47375 15.5 54.6875 C14 52 14 52 14 49 C16.97 48.505 16.97 48.505 20 48 C19.1028125 47.13375 19.1028125 47.13375 18.1875 46.25 C16.03070913 43.04562499 15.47607859 41.25403354 14.6875 37.5625 C12.73031819 28.88422682 8.96124368 18.83200703 2 13 C1.34 13 0.68 13 0 13 C-5.32810455 23.65620911 -0.13101733 43.44935834 2.94921875 54.36328125 C4.61148824 59.32380878 6.08383243 62.42721247 10 66 C9.67 66.66 9.34 67.32 9 68 C7.99403703 67.0479279 6.99538437 66.08812654 6 65.125 C5.443125 64.59132813 4.88625 64.05765625 4.3125 63.5078125 C3 62 3 62 3 60 C2.01 59.67 1.02 59.34 0 59 C-8.67879307 49.60012026 -7.70663442 34.49662257 -7.46484375 22.53515625 C-7.09060856 15.63990282 -5.12802416 5.12802416 0 0 Z " fill="#FCF7E8" transform="translate(57,27)"/>
<path d="M0 0 C3 1 3 1 4 3 C5.55556941 22.54360839 2.30118082 37.89917428 -7 55 C-7.33 55.66 -7.66 56.32 -8 57 C-6.85050412 56.21366078 -5.70551011 55.42073742 -4.5625 54.625 C-3.92441406 54.18414062 -3.28632813 53.74328125 -2.62890625 53.2890625 C-0.86259072 52.07839147 -0.86259072 52.07839147 0 50 C0.66 50 1.32 50 2 50 C4.42080258 43.0834212 6.29977612 36.12647031 8 29 C8.66 29 9.32 29 10 29 C10.66 28.34 11.32 27.68 12 27 C13.29850077 44.8543856 5.36807866 63.34743799 -4.6171875 77.765625 C-5.93639397 79.89722416 -6.5618253 81.55071581 -7 84 C-8.953125 80.58203125 -10.90625 77.1640625 -12.859375 73.74609375 C-13.39062988 72.81978149 -13.39062988 72.81978149 -13.93261719 71.87475586 C-14.64426679 70.62481138 -15.34806898 69.37036633 -16.04394531 68.11157227 C-17.87311479 64.82459154 -19.73568992 61.86252714 -22.25 59.0625 C-22.77078125 58.47597656 -23.2915625 57.88945313 -23.828125 57.28515625 C-24.21484375 56.86105469 -24.6015625 56.43695313 -25 56 C-22.03824877 56.61277612 -20.61941217 57.25372522 -18 59 C-13.66965806 55.15080717 -11.3439244 51.27710354 -9 46 C-12.465 46.495 -12.465 46.495 -16 47 C-13.525 42.05 -13.525 42.05 -11 37 C-13.64 37 -16.28 37 -19 37 C-19 36.34 -19 35.68 -19 35 C-18 34 -17 33 -16 32 C-15.01308035 29.03924104 -14.96914234 27.14084796 -14.9375 24.0625 C-14.1288694 14.22850848 -7.09487997 6.38539197 0 0 Z " fill="#E47438" transform="translate(201,39)"/>
<path d="M0 0 C0.66 0 1.32 0 2 0 C9.71955728 21.61476039 4.95291823 53.30607604 -4 74 C-10.34745763 87.34745763 -10.34745763 87.34745763 -13 90 C-12.57886691 95.60900454 -11.44272837 100.37465645 -9.3125 105.5625 C-9.0441333 106.21726318 -8.7757666 106.87202637 -8.49926758 107.54663086 C-4.94214646 115.86598954 -0.59517485 120.04434561 7.14453125 124.54296875 C9 126 9 126 9.875 127.87890625 C10.1460224 132.47781754 7.52923951 136.32461274 5 140 C0.47529965 144.40621393 -4.56078991 147.82388982 -10 151 C-9.34 151.99 -8.68 152.98 -8 154 C-7.875 156.6875 -7.875 156.6875 -8 159 C-12.63538237 160.04459321 -17.27078681 161.06562437 -21.9296875 162 C-22.744375 162.165 -23.5590625 162.33 -24.3984375 162.5 C-26.07200493 162.83788112 -27.74652019 163.17109599 -29.421875 163.5 C-30.22882813 163.665 -31.03578125 163.83 -31.8671875 164 C-32.59019043 164.144375 -33.31319336 164.28875 -34.05810547 164.4375 C-36.29683527 164.98028602 -36.29683527 164.98028602 -39 167 C-38.55269531 167.64324219 -38.10539062 168.28648437 -37.64453125 168.94921875 C-31.48557022 178.15483001 -26.65896337 187.79762277 -26 199 C-27.98 199 -29.96 199 -32 199 C-32.08636719 198.24976563 -32.17273438 197.49953125 -32.26171875 196.7265625 C-33.71923947 186.10939325 -37.39695109 175.98086384 -46 169 C-50.28764271 167.48757808 -53.66052308 168.38536389 -58 169.4375 C-62.11044016 170.42524586 -65.76529839 171.20050671 -70 171 C-70 170.34 -70 169.68 -70 169 C-69.36723145 168.84966309 -68.73446289 168.69932617 -68.08251953 168.54443359 C-55.72241783 165.58686178 -43.57466948 162.41858513 -31.58203125 158.19921875 C-25.47738866 156.15546163 -20.38917174 155.90463923 -14 156 C-15.32 153.36 -16.64 150.72 -18 148 C-17.23816406 147.6596875 -16.47632813 147.319375 -15.69140625 146.96875 C-7.58299547 143.16255468 0.7593167 139.0191306 4.5625 130.5 C4.7790625 129.2625 4.7790625 129.2625 5 128 C4.195625 127.835 3.39125 127.67 2.5625 127.5 C-5.02016618 124.30729845 -9.78352038 119.19208777 -13.3125 111.8125 C-14.23262394 109.55139998 -15.12837445 107.2802347 -16 105 C-16.495 103.89785156 -16.99 102.79570312 -17.5 101.66015625 C-20.67717435 93.7077645 -20.67717435 93.7077645 -18.9296875 89.30078125 C-17.72399576 87.49224364 -16.45860847 85.72262634 -15.1484375 83.98828125 C-7.576075 73.45581341 -4.43495584 60.54133171 -2 48 C-1.82130371 47.12915771 -1.64260742 46.25831543 -1.45849609 45.36108398 C-0.86950514 41.04338513 -0.89564516 36.83182274 -0.9375 32.48046875 C-0.94128662 31.58129227 -0.94507324 30.68211578 -0.94897461 29.75569153 C-0.96114063 26.89957777 -0.97978687 24.04356744 -1 21.1875 C-1.02648774 17.41015928 -1.0465075 13.63286677 -1.0625 9.85546875 C-1.07494751 8.54620674 -1.07494751 8.54620674 -1.08764648 7.210495 C-1.09618 5.14014144 -1.05344216 3.06968128 -1 1 C-0.67 0.67 -0.34 0.34 0 0 Z " fill="#2D162A" transform="translate(214,27)"/>
<path d="M0 0 C8.07893243 3.5540368 10.93966361 11.69587959 13.99560547 19.45581055 C15.56403106 23.58036935 16.82518251 27.74901567 18 32 C18.33 32.99 18.66 33.98 19 35 C15.535 35.495 15.535 35.495 12 36 C12.52268466 38.76276177 13.10869587 41.3260876 14 44 C12.35 44 10.7 44 9 44 C10.85913191 50.89835786 13.79515783 56.24385683 18 62 C17.4740625 62.928125 17.4740625 62.928125 16.9375 63.875 C16.628125 64.57625 16.31875 65.2775 16 66 C16.495 66.99 16.495 66.99 17 68 C15.96533203 69.96972656 15.96533203 69.96972656 14.3828125 72.390625 C10.92068527 77.95482947 8.37917546 83.70680054 5.875 89.75 C-0.79572392 105.79691172 -0.79572392 105.79691172 -8 111 C-6.92707151 108.83389908 -5.83295225 106.68401812 -4.703125 104.546875 C-1.65186406 98.67401791 1.07019479 92.71480074 3.5 86.5625 C3.7794043 85.88864258 4.05880859 85.21478516 4.34667969 84.52050781 C5.46356046 81.59909809 6.13815649 79.57595108 5.3984375 76.4921875 C4.93695313 75.66976562 4.47546875 74.84734375 4 74 C3.40445313 72.84628906 2.80890625 71.69257812 2.1953125 70.50390625 C1.86096191 69.87000977 1.52661133 69.23611328 1.18212891 68.58300781 C-5.71418637 55.40196735 -10.2649413 41.01334021 -10 26 C-6.82219882 27.58890059 -6.19743064 30.82648163 -5 34 C-4.690625 34.99 -4.38125 35.98 -4.0625 37 C-1.44734103 44.38397826 2.45483509 49.63655673 9 54 C8.2575 53.278125 7.515 52.55625 6.75 51.8125 C-1.77162844 41.52860846 -2.14898807 24.63376846 -2.25 11.875 C-2.2593457 11.04468262 -2.26869141 10.21436523 -2.27832031 9.35888672 C-2.27413086 8.57787598 -2.26994141 7.79686523 -2.265625 6.9921875 C-2.26336914 6.29464355 -2.26111328 5.59709961 -2.25878906 4.87841797 C-2 3 -2 3 0 0 Z " fill="#E17438" transform="translate(57,39)"/>
<path d="M0 0 C2.49621121 1.5155568 3.43843142 3.50494128 4.75 6.0625 C5.41 5.0725 6.07 4.0825 6.75 3.0625 C7.4208712 4.6857687 8.08657029 6.31117578 8.75 7.9375 C9.12125 8.84242187 9.4925 9.74734375 9.875 10.6796875 C10.75 13.0625 10.75 13.0625 10.75 15.0625 C10.09 15.3925 9.43 15.7225 8.75 16.0625 C8.75 29.5925 8.75 43.1225 8.75 57.0625 C7.41666667 57.0625 6.08333333 57.0625 4.75 57.0625 C4.75112793 56.46002441 4.75225586 55.85754883 4.75341797 55.23681641 C4.69164595 41.0856536 3.10834784 29.18799426 -2.25 16.0625 C-5.47732753 16.32641697 -6.42786855 17.24064474 -8.765625 19.58203125 C-9.68805584 20.67048285 -10.59894917 21.7687844 -11.5 22.875 C-11.98090088 23.45088867 -12.46180176 24.02677734 -12.95727539 24.62011719 C-16.90357635 29.43047107 -20.27024842 34.47388183 -23.49609375 39.796875 C-25.48243369 42.36274842 -26.12567478 42.66254 -29.25 43.0625 C-30.08015625 43.31128906 -30.9103125 43.56007812 -31.765625 43.81640625 C-37.47584005 45.50499841 -42.29988666 46.39929887 -48.25 46.0625 C-48.58 46.7225 -48.91 47.3825 -49.25 48.0625 C-48.69930631 44.20764415 -47.07327433 42.65050147 -44.25 40.0625 C-42.58192508 38.39724278 -40.91545587 36.73037659 -39.25 35.0625 C-38.39921875 34.23492187 -37.5484375 33.40734375 -36.671875 32.5546875 C-32.0501284 28.02753806 -27.70814829 23.5222275 -23.6875 18.4375 C-9.14594595 0.25405405 -9.14594595 0.25405405 0 0 Z " fill="#4A313C" transform="translate(205.25,11.9375)"/>
<path d="M0 0 C5.38380885 2.64296071 8.7738115 6.30238531 11.25 11.75 C12.59801982 17.59141923 13.00710315 22.12007413 10.125 27.5 C8 30 8 30 6 31 C6 30.01 6 29.02 6 28 C5.01 28 4.02 28 3 28 C2.319375 27.2265625 2.319375 27.2265625 1.625 26.4375 C1.08875 25.963125 0.5525 25.48875 0 25 C-3.48032201 25.26102415 -5.05096298 26.03397532 -8 28 C-8.99 26.35 -9.98 24.7 -11 23 C-10.67 25.31 -10.34 27.62 -10 30 C-10.99 30 -11.98 30 -13 30 C-16.38061938 26.24375625 -16.51013564 22.39958547 -16.3515625 17.5703125 C-15.79817225 13.5244149 -14.45118569 10.26563717 -12 7 C-9.25 5 -9.25 5 -7 4 C-10.271021 4.28037323 -11.91953166 4.93915809 -14.5625 6.9375 C-17.75893582 10.95353475 -19.32650376 15.18519239 -21 20 C-23 17 -23 17 -23 14.3125 C-21.34405811 8.8271925 -18.00566285 4.83374889 -13.8125 1 C-9.23147475 -0.62880898 -4.79686993 -0.63487984 0 0 Z " fill="#2C1629" transform="translate(97,140)"/>
<path d="M0 0 C3.58439204 2.78686481 5.6901459 5.78484046 7.1875 10.02734375 C7.40906711 12.7501574 7.32924339 15.28697162 7.1875 18.02734375 C6.1975 18.52234375 6.1975 18.52234375 5.1875 19.02734375 C5.10113281 18.44726562 5.01476562 17.8671875 4.92578125 17.26953125 C3.87802696 11.44440187 2.55129567 8.09360789 -1.8125 4.02734375 C-4.96751165 2.61144003 -4.96751165 2.61144003 -7.8125 2.02734375 C-6.884375 2.70796875 -5.95625 3.38859375 -5 4.08984375 C-0.63408427 7.75391014 0.90998836 11.84689513 1.625 17.46484375 C1.07907185 21.91025865 -0.15441275 25.40113526 -2.8125 29.02734375 C-5.5625 30.52734375 -5.5625 30.52734375 -7.8125 31.02734375 C-7.1525 30.30546875 -6.4925 29.58359375 -5.8125 28.83984375 C-3.6589147 25.81136442 -3.40073246 24.63030969 -3.8125 21.02734375 C-4.4725 20.69734375 -5.1325 20.36734375 -5.8125 20.02734375 C-6.1425 21.67734375 -6.4725 23.32734375 -6.8125 25.02734375 C-7.1425 24.36734375 -7.4725 23.70734375 -7.8125 23.02734375 C-13.55116286 23.26861372 -13.55116286 23.26861372 -18.3125 26.08984375 C-18.8075 26.72921875 -19.3025 27.36859375 -19.8125 28.02734375 C-20.8025 26.70734375 -21.7925 25.38734375 -22.8125 24.02734375 C-23.4725 25.01734375 -24.1325 26.00734375 -24.8125 27.02734375 C-27.52135133 23.77672215 -28.05920523 21.3202718 -27.8125 17.21484375 C-26.96204253 11.13497761 -24.64471943 6.57444042 -20.06640625 2.45703125 C-14.08019582 -2.04871853 -6.97204257 -3.7414625 0 0 Z " fill="#2D172B" transform="translate(173.8125,141.97265625)"/>
<path d="M0 0 C1.14082031 0.00257813 2.28164062 0.00515625 3.45703125 0.0078125 C4.58496094 0.00523437 5.71289062 0.00265625 6.875 0 C10.0985791 0.12612392 13.09803275 0.57133006 16.26953125 1.1328125 C19.96460195 1.36375442 23.49442651 1.26761332 27.14453125 0.6328125 C33.06234952 -0.31403842 39.95867729 -1.08588687 45.26953125 2.1328125 C46.29770864 3.44454 47.30158367 4.77603128 48.26953125 6.1328125 C47.64046875 6.26816406 47.01140625 6.40351563 46.36328125 6.54296875 C39.51098174 8.26636335 35.08047197 10.96632882 30.26953125 16.1328125 C29.851875 16.85082031 29.43421875 17.56882813 29.00390625 18.30859375 C27.26953125 20.1328125 27.26953125 20.1328125 23.90625 20.8046875 C13.40312432 21.01246447 13.40312432 21.01246447 10.08984375 18.44140625 C8.58203125 16.3203125 8.58203125 16.3203125 7.4453125 14.17578125 C5.26765613 10.39201287 2.02838752 8.84841219 -1.98046875 7.4453125 C-3.21796875 7.0121875 -4.45546875 6.5790625 -5.73046875 6.1328125 C-3.43597509 0.16712897 -3.43597509 0.16712897 0 0 Z " fill="#FCF8EC" transform="translate(107.73046875,203.8671875)"/>
<path d="M0 0 C3 1 3 1 4 3 C5.52628799 22.17572727 2.7572589 38.37725046 -7 55 C-8.75 56.95703125 -8.75 56.95703125 -10 58 C-10.66 57.67 -11.32 57.34 -12 57 C-11.0409375 55.7315625 -11.0409375 55.7315625 -10.0625 54.4375 C-7.8033727 51.09271435 -7.32208241 48.02603008 -7 44 C-7.99 43.67 -8.98 43.34 -10 43 C-9.67 40.36 -9.34 37.72 -9 35 C-10.98 35 -12.96 35 -15 35 C-15.24945356 21.84132494 -13.21957949 14.00661961 -4.13671875 3.93359375 C-2.81036784 2.56925666 -1.41433514 1.27290162 0 0 Z " fill="#F8A94A" transform="translate(201,39)"/>
<path d="M0 0 C8.07893243 3.5540368 10.93966361 11.69587959 13.99560547 19.45581055 C15.56403106 23.58036935 16.82518251 27.74901567 18 32 C18.33 32.99 18.66 33.98 19 35 C15.535 35.495 15.535 35.495 12 36 C12.52268466 38.76276177 13.10869587 41.3260876 14 44 C12.35 44 10.7 44 9 44 C9 46.97 9 49.94 9 53 C1.54377361 47.40783021 0.34310536 37.58694677 -1.25 28.875 C-2.02770371 23.20887294 -2.20478806 17.58569882 -2.25 11.875 C-2.2593457 11.04468262 -2.26869141 10.21436523 -2.27832031 9.35888672 C-2.27413086 8.57787598 -2.26994141 7.79686523 -2.265625 6.9921875 C-2.26336914 6.29464355 -2.26111328 5.59709961 -2.25878906 4.87841797 C-2 3 -2 3 0 0 Z " fill="#FAAA4A" transform="translate(57,39)"/>
<path d="M0 0 C3.85544798 1.99657127 5.59805092 3.39707638 8 7 C8.08085312 9.9107125 7.43011127 11.49724259 5.54296875 13.703125 C3.73503387 15.51499874 1.87236877 17.25511166 0 19 C-1.299375 20.423125 -1.299375 20.423125 -2.625 21.875 C-5.17656409 24.15797839 -6.63359854 24.7114513 -10 25 C-10.33 23.35 -10.66 21.7 -11 20 C-11.33 20.99 -11.66 21.98 -12 23 C-15.85317399 23.36696895 -17.81897751 23.09221901 -21.3125 21.3125 C-24 19 -24 19 -25.125 16.625 C-24.90098895 11.92076795 -22.27100018 9.24292588 -19.0546875 6.09765625 C-12.92597707 0.56824776 -8.28725626 -0.95374333 0 0 Z " fill="#4A313E" transform="translate(162,213)"/>
<path d="M0 0 C2.64 0 5.28 0 8 0 C8.33 0.66 8.66 1.32 9 2 C8.01 2.495 8.01 2.495 7 3 C7.59167969 3.21914062 8.18335937 3.43828125 8.79296875 3.6640625 C14.3839626 5.90775661 17.91658245 7.72835065 21 13 C21.48643772 16.06869753 21.58114407 18.94134702 21 22 C20.34 22.66 19.68 23.32 19 24 C17.68 24 16.36 24 15 24 C15 24.66 15 25.32 15 26 C13.35 26 11.7 26 10 26 C9.34 24.35 8.68 22.7 8 21 C6.70366379 22.06645115 6.70366379 22.06645115 6.9375 24.5625 C6.958125 25.366875 6.97875 26.17125 7 27 C1.99932981 26.84846454 -0.21804473 24.12318531 -3.44921875 20.69140625 C-3.96097656 20.13324219 -4.47273438 19.57507813 -5 19 C-6.84188612 16.94729537 -6.84188612 16.94729537 -9 16 C-8.58434315 10.70037512 -7.72425695 7.83066429 -4 4 C-2.68441297 2.97676564 -1.35622245 1.96873032 0 1 C0 0.67 0 0.34 0 0 Z " fill="#4A313D" transform="translate(96,210)"/>
<path d="M0 0 C1.05960938 0.19851562 2.11921875 0.39703125 3.2109375 0.6015625 C7.27907292 1.43527914 11.33082479 2.30635912 15.375 3.25 C15.375 3.91 15.375 4.57 15.375 5.25 C14.715 5.25 14.055 5.25 13.375 5.25 C13.1275 5.78625 12.88 6.3225 12.625 6.875 C12.00625 8.050625 12.00625 8.050625 11.375 9.25 C10.92125 10.260625 10.4675 11.27125 10 12.3125 C6.48309173 16.24808783 3.31951262 16.48636624 -1.71875 17.5625 C-6.43809542 18.67890429 -9.42621893 20.41694324 -12.1015625 24.5078125 C-12.60429688 25.33023438 -13.10703125 26.15265625 -13.625 27 C-15.1015625 29.38671875 -15.1015625 29.38671875 -16.625 31.25 C-20 31.8125 -20 31.8125 -22.625 31.25 C-21.11093931 19.36349369 -16.71020418 10.13989275 -8.625 1.25 C-4.97912654 -1.18058231 -4.16991691 -0.79734845 0 0 Z " fill="#FAA949" transform="translate(94.625,194.75)"/>
<path d="M0 0 C6.80669121 5.65935122 12.33323523 14.23212283 14 23 C14.12205329 25.67540816 14.04467313 28.31961238 14 31 C13.01 31.33 12.02 31.66 11 32 C10.62488281 31.39671875 10.24976563 30.7934375 9.86328125 30.171875 C4.3901574 21.62442717 -0.853207 17.91743227 -10.5625 15.3125 C-13.28159024 13.84837448 -14.2126363 12.49933968 -16.0625 10.0625 C-20.33853496 4.82673275 -25.55007256 4.01673733 -32 3 C-32 2.67 -32 2.34 -32 2 C-29.36 1.67 -26.72 1.34 -24 1 C-24 1.66 -24 2.32 -24 3 C-23.45061768 2.87359131 -22.90123535 2.74718262 -22.33520508 2.61694336 C-19.82988464 2.0466759 -17.32136081 1.49197471 -14.8125 0.9375 C-13.51602539 0.63875977 -13.51602539 0.63875977 -12.19335938 0.33398438 C-3.73082444 -1.51415544 -3.73082444 -1.51415544 0 0 Z " fill="#FBAB4A" transform="translate(168,195)"/>
<path d="M0 0 C3.97291303 1.32430434 4.85206678 3.69865217 6.75 7.1875 C7.09417969 7.80592773 7.43835938 8.42435547 7.79296875 9.06152344 C18 27.578125 18 27.578125 18 31 C18.66 31.33 19.32 31.66 20 32 C19.24976563 32.47308594 18.49953125 32.94617188 17.7265625 33.43359375 C11.38985826 37.52771123 5.75747558 41.74423617 0.25390625 46.921875 C-6.33834586 53 -6.33834586 53 -9 53 C-8.54625 52.175 -8.0925 51.35 -7.625 50.5 C-6.64388532 47.13527823 -6.64388532 47.13527823 -8.1328125 44.9609375 C-9.19541133 43.590339 -10.29149477 42.24494301 -11.421875 40.9296875 C-14.39069187 37.29950053 -15.26023488 34.68422784 -15 30 C-13.68 29.67 -12.36 29.34 -11 29 C-11.5259375 28.13375 -11.5259375 28.13375 -12.0625 27.25 C-13.14917407 24.64198224 -12.93065133 23.60582371 -12 21 C-9.36 21 -6.72 21 -4 21 C-3.67 21.66 -3.34 22.32 -3 23 C-5.31 23 -7.62 23 -10 23 C-8.68 25.97 -7.36 28.94 -6 32 C-8.97 32.495 -8.97 32.495 -12 33 C-11.4273599 34.2549347 -10.84128945 35.50374378 -10.25 36.75 C-9.92515625 37.44609375 -9.6003125 38.1421875 -9.265625 38.859375 C-7.81465019 41.31349288 -6.07767193 43.06200349 -4 45 C-1.74957738 43.39642346 0.50035059 41.79216064 2.75 40.1875 C3.38421875 39.73568359 4.0184375 39.28386719 4.671875 38.81835938 C7.80851829 36.58023369 10.93196958 34.33201302 14 32 C10.94809118 24.25284685 7.50729349 16.82338779 3.6796875 9.43359375 C2.07614164 6.30730086 0.76014286 3.42721203 0 0 Z " fill="#E5783A" transform="translate(81,53)"/>
<path d="M0 0 C1.32 0.33 2.64 0.66 4 1 C3.08734375 1.38478516 3.08734375 1.38478516 2.15625 1.77734375 C-0.2785178 3.15792767 -1.05390069 4.19404889 -2.5 6.5625 C-4.49539599 9.7147205 -6.5487576 12.79308224 -8.73828125 15.8125 C-23.68038305 34.87119299 -23.68038305 34.87119299 -31 57 C-29.02866014 58.37535339 -27.02318078 59.70211044 -25 61 C-24.175 61.928125 -23.35 62.85625 -22.5 63.8125 C-20.17414833 66.28441515 -20.17414833 66.28441515 -17 66.25 C-12.84981669 64.52075695 -11.2347504 61.78720975 -9 58 C-8 61 -8 61 -9.07421875 63.19140625 C-9.87279297 64.36509766 -9.87279297 64.36509766 -10.6875 65.5625 C-11.20699219 66.34753906 -11.72648437 67.13257812 -12.26171875 67.94140625 C-14.05639264 70.06678409 -15.44536515 70.97035415 -18 72 C-18.928125 71.154375 -19.85625 70.30875 -20.8125 69.4375 C-25.50423392 65.3925689 -30.72595206 62.22355914 -36 59 C-29.369772 36.20859124 -15.62395709 17.479302 0 0 Z " fill="#F9C7A6" transform="translate(200,27)"/>
<path d="M0 0 C0.33 0.99 0.66 1.98 1 3 C2.98 3 4.96 3 7 3 C7.125 8.75 7.125 8.75 6 11 C7.32 11.33 8.64 11.66 10 12 C9.71517632 13.41805831 9.42181856 14.83440379 9.125 16.25 C8.96257812 17.03890625 8.80015625 17.8278125 8.6328125 18.640625 C8.00849925 20.96831144 7.15161458 22.89031952 6 25 C7.11375 24.5359375 7.11375 24.5359375 8.25 24.0625 C10.50692176 23.1905075 12.6450153 22.52332993 15 22 C14.52723188 27.05786842 13.0138679 29.87083861 9.9375 33.875 C9.20402344 34.84179688 8.47054687 35.80859375 7.71484375 36.8046875 C7.14894531 37.52914062 6.58304688 38.25359375 6 39 C3.62109375 38.6953125 3.62109375 38.6953125 1 38 C-0.01587612 36.36149013 -1.02026877 34.71048429 -1.88671875 32.98828125 C-3.77758962 29.61125223 -6.40260676 26.84847459 -9 24 C-6.03824877 24.61277612 -4.61941217 25.25372522 -2 27 C2.33034194 23.15080717 4.6560756 19.27710354 7 14 C4.69 14.33 2.38 14.66 0 15 C1.65 11.7 3.3 8.4 5 5 C2.36 5 -0.28 5 -3 5 C-3 3 -3 3 -1.5 1.375 C-1.005 0.92125 -0.51 0.4675 0 0 Z " fill="#D16533" transform="translate(185,71)"/>
<path d="M0 0 C0.99 0.33 1.98 0.66 3 1 C3.26218749 4.14624993 3.24754367 5.61837017 1.5 8.3125 C1.005 8.869375 0.51 9.42625 0 10 C0.33 9.67 0.66 9.34 1 9 C5.03160191 8.73706944 6.55892734 8.70595156 10 11 C10.5 13.4375 10.5 13.4375 10 16 C7.14887196 18.50553676 5.21557035 18.97730838 1.4375 19.375 C-2.13465598 18.98531026 -3.62051435 18.66502392 -6 16 C-6 14.68 -6 13.36 -6 12 C-6.61488281 11.96261719 -7.22976562 11.92523438 -7.86328125 11.88671875 C-8.67152344 11.82097656 -9.47976562 11.75523437 -10.3125 11.6875 C-11.11300781 11.62949219 -11.91351563 11.57148438 -12.73828125 11.51171875 C-15.42904349 10.90292799 -16.39296613 10.22512381 -18 8 C-18.1875 4.3125 -18.1875 4.3125 -18 1 C-16 4 -16 4 -14 7 C-13.505 6.34 -13.01 5.68 -12.5 5 C-8.8711728 2.09693824 -6.56787125 2.62558432 -2 3 C-1.67 3.33 -1.34 3.66 -1 4 C-0.67 2.68 -0.34 1.36 0 0 Z " fill="#F19D45" transform="translate(168,162)"/>
<path d="M0 0 C0.66 0.99 1.32 1.98 2 3 C2.66 3.66 3.32 4.32 4 5 C4.556875 4.484375 5.11375 3.96875 5.6875 3.4375 C8 2 8 2 10.5625 2.125 C13.1127402 3.04047084 14.2924841 3.93300707 16 6 C16.66 4.35 17.32 2.7 18 1 C18.9659657 3.60810739 19.02770914 4.89420147 18.3125 7.625 C16.76785574 10.42007057 15.99529237 11.00156921 13 12 C11.00889599 12.38290462 9.00899487 12.72604615 7 13 C6.9175 13.78375 6.835 14.5675 6.75 15.375 C6 18 6 18 4.375 19.375 C0.96445536 20.27251175 -1.59211681 19.80549966 -5 19 C-6.9375 17.75 -6.9375 17.75 -8 16 C-8.3125 13.4375 -8.3125 13.4375 -8 11 C-5.4345406 8.4345406 -3.52313332 8.45953913 0 8 C-0.2784375 6.2984375 -0.2784375 6.2984375 -0.5625 4.5625 C-0.706875 3.386875 -0.85125 2.21125 -1 1 C-0.67 0.67 -0.34 0.34 0 0 Z " fill="#EC9544" transform="translate(86,162)"/>
<path d="M0 0 C7.93091693 1.37534101 13.05110174 10.36050945 17.4375 16.5 C18.00098145 17.28753662 18.56446289 18.07507324 19.14501953 18.88647461 C27.73638309 31.10828676 33.568608 44.1329773 39 58 C36.79665772 60.34930501 34.50435851 62.11219 31.8125 63.875 C31.02617188 64.390625 30.23984375 64.90625 29.4296875 65.4375 C25.97398119 67.65981917 22.49476496 69.83959984 19 72 C17.02 69.36 15.04 66.72 13 64 C13.33 63.34 13.66 62.68 14 62 C14.37125 62.495 14.7425 62.99 15.125 63.5 C17.82231081 65.65784865 19.62047689 65.33795231 23 65 C25.78566059 64.08742694 25.78566059 64.08742694 28 63 C27.67 62.01 27.34 61.02 27 60 C29.64 58.68 32.28 57.36 35 56 C31.9410068 47.86437979 28.88068834 40.17120754 24.1015625 32.85546875 C23 31 23 31 23 29 C22.01 28.67 21.02 28.34 20 28 C18.16525004 25.09991136 16.54778792 22.25061016 15.171875 19.109375 C12.30884586 12.70660073 7.82137657 8.02741831 3 3 C1.68 4.32 0.36 5.64 -1 7 C-1.66 6.67 -2.32 6.34 -3 6 C-2.01 4.02 -1.02 2.04 0 0 Z " fill="#F5C9AC" transform="translate(57,27)"/>
<path d="M0 0 C6.80669121 5.65935122 12.33323523 14.23212283 14 23 C14.12205329 25.67540816 14.04467313 28.31961238 14 31 C13.01 31.33 12.02 31.66 11 32 C8.35083136 27.69510095 8.92909887 23.77252831 9.125 18.875 C8.99500501 15.88511528 8.70202818 14.43374123 7 12 C0.81719904 6.98070207 -5.97700642 6.52441302 -13.58007812 6.31396484 C-19.99641738 6.11506405 -25.85572748 4.88234939 -32 3 C-32 2.67 -32 2.34 -32 2 C-29.36 1.67 -26.72 1.34 -24 1 C-24 1.66 -24 2.32 -24 3 C-23.45061768 2.87359131 -22.90123535 2.74718262 -22.33520508 2.61694336 C-19.82988464 2.0466759 -17.32136081 1.49197471 -14.8125 0.9375 C-13.51602539 0.63875977 -13.51602539 0.63875977 -12.19335938 0.33398438 C-3.73082444 -1.51415544 -3.73082444 -1.51415544 0 0 Z " fill="#DA7947" transform="translate(168,195)"/>
<path d="M0 0 C1 1 1 1 1.01953125 2.890625 C0.56313374 8.09183433 0.03990653 11.36408413 -4 15 C-11.78393352 20 -11.78393352 20 -15 20 C-16.3289441 14.68422362 -16.01275809 11.65741463 -13.30078125 6.8671875 C-9.8401898 1.8997319 -6.34265323 -0.88502138 0 0 Z " fill="#FDF7E6" transform="translate(162,117)"/>
<path d="M0 0 C3.56920443 -0.33201902 5.50670837 -0.29362597 8.625 1.5625 C12.79374961 5.84095354 15.23940391 9.45070965 15.25 15.4375 C15.1675 16.613125 15.085 17.78875 15 19 C14.34 19.33 13.68 19.66 13 20 C7.56700971 17.58933544 3.09858758 14.03520481 0 9 C-0.3851528 5.94878952 -0.30551459 3.05514586 0 0 Z " fill="#FDF9E7" transform="translate(96,117)"/>
<path d="M0 0 C0.66 0.66 1.32 1.32 2 2 C1.71801758 2.52319824 1.43603516 3.04639648 1.14550781 3.58544922 C-7.6704651 17.6064747 -7.6704651 17.6064747 -12 33 C-9.84964672 34.48895686 -9.84964672 34.48895686 -7.1875 35.9375 C-4.04761583 37.70906524 -1.41846354 39.30835453 1 42 C-0.485 42.495 -0.485 42.495 -2 43 C-4.5234375 41.453125 -4.5234375 41.453125 -7.375 39.25 C-10.82472754 36.6080599 -14.23015157 34.16594928 -18 32 C-16.27525295 26.1495796 -13.63615938 20.79194556 -11 15.3125 C-10.54882812 14.36310547 -10.09765625 13.41371094 -9.6328125 12.43554688 C-4.64680767 2.01361666 -4.64680767 2.01361666 0 0 Z " fill="#E67435" transform="translate(177,53)"/>
<path d="M0 0 C1.05960938 0.19851562 2.11921875 0.39703125 3.2109375 0.6015625 C7.27907292 1.43527914 11.33082479 2.30635912 15.375 3.25 C15.375 3.91 15.375 4.57 15.375 5.25 C12.67246374 6.60126813 10.76570419 6.12831999 7.75 5.9375 C-0.8351677 5.81251996 -7.87641038 8.90786122 -15.625 12.25 C-12.86093364 4.74753418 -8.69309511 -1.66224558 0 0 Z " fill="#E26D34" transform="translate(94.625,194.75)"/>
<path d="M0 0 C0.33 0.99 0.66 1.98 1 3 C2.98 3 4.96 3 7 3 C7.125 8.75 7.125 8.75 6 11 C7.32 11.33 8.64 11.66 10 12 C9.08149727 18.98378799 7.01534747 23.08005316 2 28 C1.34 28.66 0.68 29.32 0 30 C0.66 31.98 1.32 33.96 2 36 C-1.91939465 32.19588166 -5.49102731 28.18423892 -9 24 C-6.03824877 24.61277612 -4.61941217 25.25372522 -2 27 C2.33034194 23.15080717 4.6560756 19.27710354 7 14 C4.69 14.33 2.38 14.66 0 15 C1.65 11.7 3.3 8.4 5 5 C2.36 5 -0.28 5 -3 5 C-3 3 -3 3 -1.5 1.375 C-1.005 0.92125 -0.51 0.4675 0 0 Z " fill="#382227" transform="translate(185,71)"/>
<path d="M0 0 C1.65 0 3.3 0 5 0 C4.89753948 4.20088136 3.8883375 6.52159381 1.0625 9.5 C-4.37649616 14.54649128 -10.57383888 18.86361236 -18 20 C-18 19.01 -18 18.02 -18 17 C-15.8046875 14.9140625 -15.8046875 14.9140625 -12.875 12.625 C-11.37259766 11.43777344 -11.37259766 11.43777344 -9.83984375 10.2265625 C-8.90269531 9.49179688 -7.96554688 8.75703125 -7 8 C-5.8075525 7.00590483 -4.61871298 6.00741855 -3.4375 5 C-1 3 -1 3 1 2 C0.67 1.34 0.34 0.68 0 0 Z " fill="#F6CBAE" transform="translate(214,155)"/>
<path d="M0 0 C3.38025595 0.26001969 6.09243904 1.04711963 9.25 2.25 C9.58 4.23 9.91 6.21 10.25 8.25 C7.11548114 10.6246355 5.62243096 11.26284245 1.625 11.125 C-3.14874411 9.88736264 -3.14874411 9.88736264 -4.75 7.25 C-5.0625 4.6875 -5.0625 4.6875 -4.75 2.25 C-2.75 0.25 -2.75 0.25 0 0 Z " fill="#FBB694" transform="translate(82.75,170.75)"/>
<path d="M0 0 C3 2 3 2 3.5 4.4375 C3 7 3 7 0.9375 8.8125 C-2.6563669 10.26533981 -5.15276158 10.41969874 -9 10 C-11.4375 8.75 -11.4375 8.75 -13 7 C-13 5.68 -13 4.36 -13 3 C-8.45016577 0.81607957 -5.15550825 -0.58585321 0 0 Z " fill="#F9B391" transform="translate(175,171)"/>
<path d="M0 0 C2.64 0 5.28 0 8 0 C8.33 0.66 8.66 1.32 9 2 C6.69 2 4.38 2 2 2 C3.32 4.97 4.64 7.94 6 11 C4.02 11.33 2.04 11.66 0 12 C2.13206212 16.67239145 4.02502456 20.59287819 8 24 C9.65 23.01 11.3 22.02 13 21 C11.59155282 24.21524305 9.89655214 26.32183868 7.375 28.75 C6.74335937 29.36359375 6.11171875 29.9771875 5.4609375 30.609375 C4.97882813 31.06828125 4.49671875 31.5271875 4 32 C3.67 31.34 3.34 30.68 3 30 C3.9375 27.875 3.9375 27.875 5 26 C4.59007813 25.46890625 4.18015625 24.9378125 3.7578125 24.390625 C2.94957031 23.33101562 2.94957031 23.33101562 2.125 22.25 C1.32449219 21.20585938 1.32449219 21.20585938 0.5078125 20.140625 C-2.20982996 16.28241758 -3.26442006 13.75956102 -3 9 C-1.68 8.67 -0.36 8.34 1 8 C0.649375 7.4225 0.29875 6.845 -0.0625 6.25 C-1.14917407 3.64198224 -0.93065133 2.60582371 0 0 Z " fill="#3E1C24" transform="translate(69,74)"/>
<path d="M0 0 C0.66 0.99 1.32 1.98 2 3 C-10.52464608 6.61536176 -19.47535392 6.61536176 -32 3 C-32 2.67 -32 2.34 -32 2 C-29.36 1.67 -26.72 1.34 -24 1 C-24 1.66 -24 2.32 -24 3 C-23.45061768 2.87359131 -22.90123535 2.74718262 -22.33520508 2.61694336 C-19.82988464 2.0466759 -17.32136081 1.49197471 -14.8125 0.9375 C-13.51602539 0.63875977 -13.51602539 0.63875977 -12.19335938 0.33398438 C-3.75433013 -1.50902201 -3.75433013 -1.50902201 0 0 Z " fill="#DC6635" transform="translate(168,195)"/>
<path d="M0 0 C0.99 0.66 1.98 1.32 3 2 C3.1875 4.625 3.1875 4.625 3 7 C2.01 7.495 2.01 7.495 1 8 C1 7.34 1 6.68 1 6 C-4.73866286 6.24126997 -4.73866286 6.24126997 -9.5 9.0625 C-9.995 9.701875 -10.49 10.34125 -11 11 C-11.99 9.35 -12.98 7.7 -14 6 C-13.34 6 -12.68 6 -12 6 C-11.731875 5.38125 -11.46375 4.7625 -11.1875 4.125 C-8.5166516 -0.65441292 -4.96609284 -0.35472092 0 0 Z " fill="#3F202D" transform="translate(165,159)"/>
<path d="M0 0 C0.33 0 0.66 0 1 0 C2.31938045 9.23566318 -2.07136922 17.35911113 -7 25 C-7.97286468 26.0264182 -8.96684102 27.03429687 -10 28 C-10.33 26.35 -10.66 24.7 -11 23 C-10.34 23 -9.68 23 -9 23 C-6.57919742 16.0834212 -4.70022388 9.12647031 -3 2 C-2.34 2 -1.68 2 -1 2 C-0.67 1.34 -0.34 0.68 0 0 Z " fill="#F9A54B" transform="translate(212,66)"/>
<path d="M0 0 C1.32 0.33 2.64 0.66 4 1 C3.08734375 1.38478516 3.08734375 1.38478516 2.15625 1.77734375 C-0.2785178 3.15792767 -1.05390069 4.19404889 -2.5 6.5625 C-5.64010669 11.50857478 -8.98586698 16.2855071 -12.375 21.0625 C-12.92349609 21.83730713 -13.47199219 22.61211426 -14.03710938 23.41040039 C-15.35700657 25.27435988 -16.67797244 27.13755118 -18 29 C-18.66 27.68 -19.32 26.36 -20 25 C-7.23404255 7.65957447 -7.23404255 7.65957447 0 0 Z " fill="#F1C9B3" transform="translate(200,27)"/>
<path d="M0 0 C2.9375 2.1875 2.9375 2.1875 5 5 C4.8125 7.8125 4.8125 7.8125 4 10 C3.278125 9.319375 2.55625 8.63875 1.8125 7.9375 C-0.7921256 5.72444809 -0.7921256 5.72444809 -3.625 6.125 C-6.21287957 6.97374676 -6.21287957 6.97374676 -9 9 C-11 6 -11 6 -11 3 C-7.39624072 0.13819116 -4.55079387 -0.75846565 0 0 Z " fill="#42202B" transform="translate(98,159)"/>
<path d="M0 0 C0.66 1.32 1.32 2.64 2 4 C2.81726563 3.83757812 3.63453125 3.67515625 4.4765625 3.5078125 C8.48425338 2.93020738 12.33407536 2.85342923 16.375 2.875 C17.09171875 2.87113281 17.8084375 2.86726563 18.546875 2.86328125 C22.22604592 2.86992235 25.76845331 3.05844593 29.4140625 3.5703125 C32.83164699 4.31353122 32.83164699 4.31353122 35 3 C35 3.99 35 4.98 35 6 C35.66 6.33 36.32 6.66 37 7 C35.783125 7.020625 34.56625 7.04125 33.3125 7.0625 C32.28576172 7.07990234 32.28576172 7.07990234 31.23828125 7.09765625 C29 7 29 7 26.77734375 6.50390625 C22.92413669 5.80480117 19.15773557 5.85240727 15.25 5.875 C14.45029785 5.87693359 13.6505957 5.87886719 12.82666016 5.88085938 C7.48542007 5.92002919 2.28994885 6.21630387 -3 7 C-2.01 4.69 -1.02 2.38 0 0 Z " fill="#E3773E" transform="translate(112,72)"/>
<path d="M0 0 C0.70769531 0.33902344 1.41539063 0.67804688 2.14453125 1.02734375 C5.36133324 2.12308068 7.34325293 2.00505384 10.6875 1.5625 C15.80839612 0.90419806 15.80839612 0.90419806 18 2 C21.53018797 2.15348643 24.61527952 2.04145246 28 1 C27 4 27 4 25.26953125 5.21484375 C22.47229771 6.18256138 20.61026458 5.96350165 17.6875 5.5625 C14.14918651 5.14317923 11.69164206 5.04973515 8.125 5.625 C5 6 5 6 2.0625 4.75 C1.381875 4.1725 0.70125 3.595 0 3 C0 2.01 0 1.02 0 0 Z " fill="#301F2D" transform="translate(114,176)"/>
<path d="M0 0 C3.17780118 1.58890059 3.80256936 4.82648163 5 8 C5.309375 8.99 5.61875 9.98 5.9375 11 C8.20916304 17.51305157 8.20916304 17.51305157 13 22 C12.67 22.66 12.34 23.32 12 24 C6.76635724 21.74710742 3.6440832 17.9820094 1 13 C0.16058954 8.6467783 -0.04789813 4.42715566 0 0 Z " fill="#F6A452" transform="translate(47,65)"/>
<path d="M0 0 C0.66 0.66 1.32 1.32 2 2 C-0.97 7.61 -3.94 13.22 -7 19 C-7.33 17.68 -7.66 16.36 -8 15 C-8.99 15.66 -9.98 16.32 -11 17 C-9.4305376 11.4355424 -7.06611173 3.79317726 -1.8359375 0.734375 C-1.23007813 0.49203125 -0.62421875 0.2496875 0 0 Z " fill="#E06C2F" transform="translate(177,53)"/>
<path d="M0 0 C1.9375 0.6875 1.9375 0.6875 3.9375 1.6875 C3.6075 3.9975 3.2775 6.3075 2.9375 8.6875 C1.9475 7.3675 0.9575 6.0475 -0.0625 4.6875 C-4.14305151 5.19297372 -5.72522295 7.18838882 -8.3125 10.25 C-9.01890625 11.07628906 -9.7253125 11.90257812 -10.453125 12.75390625 C-10.98421875 13.39199219 -11.5153125 14.03007813 -12.0625 14.6875 C-12.0625 10.91237362 -10.91750361 9.6720703 -8.75 6.625 C-7.82767578 5.30822266 -7.82767578 5.30822266 -6.88671875 3.96484375 C-3.30913947 -0.50138477 -3.30913947 -0.50138477 0 0 Z " fill="#371D28" transform="translate(203.0625,23.3125)"/>
<path d="M0 0 C0.33 0 0.66 0 1 0 C1 3.3 1 6.6 1 10 C2.32 10.33 3.64 10.66 5 11 C3.875 13.5 3.875 13.5 2 16 C-1.1875 16.3125 -1.1875 16.3125 -4 16 C-3.71515154 14.26969709 -3.42180062 12.54079286 -3.125 10.8125 C-2.96257812 9.84957031 -2.80015625 8.88664063 -2.6328125 7.89453125 C-2.01960483 5.08967396 -1.14333657 2.62775253 0 0 Z " fill="#DD753B" transform="translate(76,210)"/>
<path d="M0 0 C1.55597726 2.33396589 2.92081896 4.42656829 4 7 C3.67 7.66 3.34 8.32 3 9 C4.60407328 9.02708567 6.2082785 9.04643483 7.8125 9.0625 C9.15248047 9.07990234 9.15248047 9.07990234 10.51953125 9.09765625 C13.13413791 9.11009967 13.13413791 9.11009967 16 8 C17.22969878 4.48809191 17.22969878 4.48809191 18 1 C18.9659657 3.60810739 19.02770914 4.89420147 18.3125 7.625 C16.75531324 10.44276651 16.06603112 11.08847723 13 12 C8.16807139 12.35792064 4.50410461 11.75769936 0 10 C-0.19412181 8.52168779 -0.38012131 7.04230684 -0.5625 5.5625 C-0.66691406 4.73878906 -0.77132812 3.91507813 -0.87890625 3.06640625 C-0.91886719 2.38449219 -0.95882812 1.70257813 -1 1 C-0.67 0.67 -0.34 0.34 0 0 Z " fill="#D37136" transform="translate(86,162)"/>
<path d="M0 0 C3.50827405 0.18963643 4.7412563 0.72647095 7.1875 3.3125 C8.0846875 4.6428125 8.0846875 4.6428125 9 6 C9.4125 6.598125 9.825 7.19625 10.25 7.8125 C11.41843722 11.22044188 11.1196222 14.41133398 11 18 C10.34 18.33 9.68 18.66 9 19 C8.91363281 18.41992188 8.82726562 17.83984375 8.73828125 17.2421875 C7.68183966 11.36875993 6.1662468 8.26786258 2 4 C1.401875 3.38125 0.80375 2.7625 0.1875 2.125 C-0.204375 1.75375 -0.59625 1.3825 -1 1 C-0.67 0.67 -0.34 0.34 0 0 Z " fill="#2C1328" transform="translate(170,142)"/>
<path d="M0 0 C1.5 1.375 1.5 1.375 3 3 C3 3.66 3 4.32 3 5 C3.66 5 4.32 5 5 5 C5.33 4.34 5.66 3.68 6 3 C6.31453125 3.81984375 6.6290625 4.6396875 6.953125 5.484375 C7.59507813 7.10085937 7.59507813 7.10085937 8.25 8.75 C8.66765625 9.81734375 9.0853125 10.8846875 9.515625 11.984375 C10.99892631 14.99781871 12.49731681 16.79678317 15 19 C14.67 19.66 14.34 20.32 14 21 C12.99403703 20.0479279 11.99538437 19.08812654 11 18.125 C10.443125 17.59132813 9.88625 17.05765625 9.3125 16.5078125 C8 15 8 15 8 13 C7.01 12.67 6.02 12.34 5 12 C3.61328125 10.29296875 3.61328125 10.29296875 2.3125 8.1875 C1.87550781 7.50042969 1.43851563 6.81335938 0.98828125 6.10546875 C0 4 0 4 0 0 Z " fill="#FDE9CB" transform="translate(52,74)"/>
<path d="M0 0 C1.9375 0.75 1.9375 0.75 3.9375 2.75 C3.875 4.75 3.875 4.75 2.9375 6.75 C0.5625 8.125 0.5625 8.125 -2.0625 8.75 C-3.0525 8.09 -4.0425 7.43 -5.0625 6.75 C-5.4375 4.25 -5.4375 4.25 -5.0625 1.75 C-2.0625 -0.25 -2.0625 -0.25 0 0 Z " fill="#F0EDF1" transform="translate(162.0625,147.25)"/>
<path d="M0 0 C6.19049884 1.20790221 9.55225416 4.96610111 13 10 C13.69921875 12.2578125 13.69921875 12.2578125 14 14 C12.35 14 10.7 14 9 14 C8.608125 12.9275 8.21625 11.855 7.8125 10.75 C6.26470622 7.07676692 4.21553679 5.3693429 1 3 C0.67 2.01 0.34 1.02 0 0 Z " fill="#2E1623" transform="translate(164,212)"/>
<path d="M0 0 C4.55555556 0.55555556 4.55555556 0.55555556 6 2 C6.04063832 3.66617115 6.042721 5.33388095 6 7 C3.6875 8.125 3.6875 8.125 1 9 C0.01 8.34 -0.98 7.68 -2 7 C-2.3125 4.5 -2.3125 4.5 -2 2 C-1.34 1.34 -0.68 0.68 0 0 Z " fill="#F5F3F5" transform="translate(93,147)"/>
<path d="M0 0 C2.48307071 1.68494084 2.93875261 2.76057838 3.6875 5.6875 C3.790625 6.450625 3.89375 7.21375 4 8 C-1 6 -1 6 -3.375 4.9375 C-6.55658303 3.80122035 -9.65288801 3.39377788 -13 3 C-13 2.67 -13 2.34 -13 2 C-3.68421053 -0.52631579 -3.68421053 -0.52631579 0 0 Z " fill="#E77534" transform="translate(171,198)"/>
<path d="M0 0 C2.64 0 5.28 0 8 0 C8.33 1.32 8.66 2.64 9 4 C6 6 6 6 3.4375 5.6875 C1 5 1 5 -1 4 C-0.67 2.68 -0.34 1.36 0 0 Z " fill="#332032" transform="translate(124,166)"/>
<path d="M0 0 C-4.75 4 -4.75 4 -7 4 C-7.2475 4.7425 -7.495 5.485 -7.75 6.25 C-9.09147301 9.20124062 -10.60905526 10.84814974 -13 13 C-13.66 12.67 -14.32 12.34 -15 12 C-12.12999287 5.0444533 -8.53809993 -1.00448235 0 0 Z " fill="#B3A7C4" transform="translate(92,143)"/>
<path d="M0 0 C7.24423829 1.24955202 11.76358864 8.75892067 15.93359375 14.30078125 C17 16 17 16 17 18 C16.34 18 15.68 18 15 18 C14.1027129 16.65406935 13.212138 15.30328834 12.3515625 13.93359375 C9.60103645 9.99859261 6.23743949 6.53603827 3 3 C1.68 4.32 0.36 5.64 -1 7 C-1.66 6.67 -2.32 6.34 -3 6 C-2.01 4.02 -1.02 2.04 0 0 Z " fill="#EAC7B4" transform="translate(57,27)"/>
<path d="M0 0 C0 0.99 0 1.98 0 3 C-6.64558134 5.60900601 -12.88515313 6.6143354 -20 7 C-20 6.34 -20 5.68 -20 5 C-13.4 3.35 -6.8 1.7 0 0 Z " fill="#3D1922" transform="translate(164,191)"/>
<path d="M0 0 C0.99 0.33 1.98 0.66 3 1 C3.39169887 3.66355234 3.40564529 5.39224373 1.88671875 7.66796875 C0.63610683 9.1510888 -0.67864514 10.57954352 -2 12 C-3.32 11.67 -4.64 11.34 -6 11 C-5.01 10.34 -4.02 9.68 -3 9 C-2.74969023 6.41619823 -2.74969023 6.41619823 -3 4 C-3.99 3.67 -4.98 3.34 -6 3 C-3.525 3.495 -3.525 3.495 -1 4 C-0.67 2.68 -0.34 1.36 0 0 Z " fill="#BB572E" transform="translate(168,162)"/>
<path d="M0 0 C12.77945619 1.21709107 12.77945619 1.21709107 18 3 C18.33 3.66 18.66 4.32 19 5 C12.11059329 4.56367091 5.64248536 3.91610155 -1 2 C-0.67 1.34 -0.34 0.68 0 0 Z " fill="#3A1D28" transform="translate(94,193)"/>
<path d="M0 0 C1.32 0.33 2.64 0.66 4 1 C4.061875 1.86625 4.061875 1.86625 4.125 2.75 C5.44065958 6.13312465 7.96552364 7.19222685 11 9 C10.01 9.66 9.02 10.32 8 11 C3.78926767 9.49616703 2.16762883 6.79335044 0 3 C0 2.01 0 1.02 0 0 Z " fill="#F1CDB6" transform="translate(39,155)"/>
<path d="M0 0 C2 1 2 1 2.8515625 3.50390625 C3.10679687 4.51324219 3.36203125 5.52257812 3.625 6.5625 C3.88539063 7.57441406 4.14578125 8.58632813 4.4140625 9.62890625 C4.60742188 10.41136719 4.80078125 11.19382812 5 12 C3.68 12.33 2.36 12.66 1 13 C0.63447197 11.58622218 0.28304505 10.16879424 -0.0625 8.75 C-0.25972656 7.96109375 -0.45695313 7.1721875 -0.66015625 6.359375 C-1.01497267 3.89605178 -0.76877544 2.34395868 0 0 Z " fill="#38273A" transform="translate(211,15)"/>
<path d="M0 0 C0.556875 0.226875 1.11375 0.45375 1.6875 0.6875 C0.8125 4.5625 0.8125 4.5625 -0.3125 5.6875 C-2.75 5.9375 -2.75 5.9375 -5.3125 5.6875 C-5.9725 4.6975 -6.6325 3.7075 -7.3125 2.6875 C-2.88173077 -0.38942308 -2.88173077 -0.38942308 0 0 Z " fill="#FDD56E" transform="translate(164.3125,167.3125)"/>
<path d="M0 0 C0.33 0.66 0.66 1.32 1 2 C3.64 2 6.28 2 9 2 C9 2.33 9 2.66 9 3 C11.97 3.495 11.97 3.495 15 4 C15 4.33 15 4.66 15 5 C7.21038876 5.46530864 0.47321608 4.15721701 -7 2 C-7 1.67 -7 1.34 -7 1 C-3.535 0.505 -3.535 0.505 0 0 Z " fill="#CD7147" transform="translate(143,196)"/>
<path d="M0 0 C3.33333333 6.66666667 6.66666667 13.33333333 10 20 C6.61743279 18.60802671 5.16311318 17.1974504 3.3125 14.0625 C2.89613281 13.37285156 2.47976562 12.68320313 2.05078125 11.97265625 C-0.11522297 7.90636579 -0.08554446 4.53385645 0 0 Z " fill="#DE7E40" transform="translate(197,128)"/>
<path d="M0 0 C1.74627478 2.61941217 2.38722388 4.03824877 3 7 C1.71186658 7.83878455 0.41936744 8.67086783 -0.875 9.5 C-1.59429687 9.9640625 -2.31359375 10.428125 -3.0546875 10.90625 C-5 12 -5 12 -7 12 C-6.67 11.01 -6.34 10.02 -6 9 C-5.34 9 -4.68 9 -4 9 C-3.87625 8.360625 -3.7525 7.72125 -3.625 7.0625 C-3.41875 6.381875 -3.2125 5.70125 -3 5 C-2.34 4.67 -1.68 4.34 -1 4 C-0.34786708 1.97536745 -0.34786708 1.97536745 0 0 Z " fill="#FAC49F" transform="translate(93,79)"/>
<path d="M0 0 C5.44533513 0.38895251 8.12686961 2.2148953 12 6 C13.375 8.3125 13.375 8.3125 14 10 C10.40163887 9.41103058 8.54164989 8.00101444 5.875 5.5625 C5.19179687 4.94503906 4.50859375 4.32757813 3.8046875 3.69140625 C2.51538621 2.48303513 1.24949161 1.24949161 0 0 Z " fill="#B6AECE" transform="translate(164,143)"/>
<path d="M0 0 C1.60875 0.556875 1.60875 0.556875 3.25 1.125 C3.58 2.775 3.91 4.425 4.25 6.125 C0.29 4.475 -3.67 2.825 -7.75 1.125 C-3.75 -0.875 -3.75 -0.875 0 0 Z " fill="#2D182B" transform="translate(108.75,211.875)"/>
<path d="M0 0 C3.54934659 0.83824994 6.12374133 1.65357845 9 4 C10.02994813 6.67258336 10.48746915 9.15778346 11 12 C7.08060535 8.19588166 3.50897269 4.18423892 0 0 Z " fill="#3B171D" transform="translate(176,95)"/>
<path d="M0 0 C1 3 1 3 -0.07421875 5.19140625 C-0.60660156 5.97386719 -1.13898438 6.75632812 -1.6875 7.5625 C-2.20699219 8.34753906 -2.72648438 9.13257812 -3.26171875 9.94140625 C-5.05639264 12.06678409 -6.44536515 12.97035415 -9 14 C-9.33 13.01 -9.66 12.02 -10 11 C-9.11054688 10.64808594 -9.11054688 10.64808594 -8.203125 10.2890625 C-5.48906 8.70104575 -4.41506759 7.02397116 -2.75 4.375 C-2.22921875 3.55773437 -1.7084375 2.74046875 -1.171875 1.8984375 C-0.78515625 1.27195312 -0.3984375 0.64546875 0 0 Z " fill="#EFC0A5" transform="translate(191,85)"/>
<path d="M0 0 C0.99 0.33 1.98 0.66 3 1 C1.68 4.63 0.36 8.26 -1 12 C-3 9 -3 9 -2.75 6 C-2 3 -2 3 0 0 Z " fill="#37202C" transform="translate(77,148)"/>
<path d="M0 0 C4.9335117 2.35406142 9.51978158 4.86384711 14 8 C13.01 8.66 12.02 9.32 11 10 C9.16106176 8.71632558 7.32897375 7.42283239 5.5 6.125 C4.4790625 5.40570313 3.458125 4.68640625 2.40625 3.9453125 C1.6121875 3.30335937 0.818125 2.66140625 0 2 C0 1.34 0 0.68 0 0 Z " fill="#E67E42" transform="translate(164,86)"/>
<path d="M0 0 C0 3 0 3 -1.75 5.04296875 C-2.4925 5.75066406 -3.235 6.45835938 -4 7.1875 C-4.7425 7.90292969 -5.485 8.61835937 -6.25 9.35546875 C-6.8275 9.89816406 -7.405 10.44085938 -8 11 C-8.33 10.34 -8.66 9.68 -9 9 C-6.83544304 3.53164557 -6.83544304 3.53164557 -3.9375 1.6875 C-3.298125 1.460625 -2.65875 1.23375 -2 1 C-1.34 0.67 -0.68 0.34 0 0 Z " fill="#361016" transform="translate(81,95)"/>
<path d="M0 0 C0 3 0 3 -1.6796875 4.71875 C-2.76636719 5.60046875 -2.76636719 5.60046875 -3.875 6.5 C-6.48194454 8.63040629 -8.10668572 10.16002857 -10 13 C-10.99 12.67 -11.98 12.34 -13 12 C-8.87675353 7.74790208 -4.48717034 3.86364295 0 0 Z " fill="#F6D5BA" transform="translate(208,162)"/>
<path d="M0 0 C4 6 4 6 4 11 C2.68 10.67 1.36 10.34 0 10 C-0.19412181 8.52168779 -0.38012131 7.04230684 -0.5625 5.5625 C-0.66691406 4.73878906 -0.77132812 3.91507813 -0.87890625 3.06640625 C-0.91886719 2.38449219 -0.95882812 1.70257813 -1 1 C-0.67 0.67 -0.34 0.34 0 0 Z " fill="#D05F2C" transform="translate(86,162)"/>
<path d="M0 0 C2.22935295 0.99936512 3.78145534 1.74171995 5.375 3.625 C7.80395238 5.6802674 9.93373089 5.20441794 13 5 C11 8 11 8 8.875 8.6875 C8.25625 8.790625 7.6375 8.89375 7 9 C5.14453125 6.70507812 5.14453125 6.70507812 3.2890625 4.41015625 C2.0333609 2.86733563 2.0333609 2.86733563 0 2 C0 1.34 0 0.68 0 0 Z " fill="#F6CEB3" transform="translate(173,88)"/>
<path d="M0 0 C2.5654594 2.5654594 2.54046087 4.47686668 3 8 C3.33 8 3.66 8 4 8 C4 9.65 4 11.3 4 13 C2.66666667 13 1.33333333 13 0 13 C0 8.71 0 4.42 0 0 Z " fill="#6F5653" transform="translate(210,56)"/>
<path d="M0 0 C3.47132095 1.40929697 4.88093274 2.90605083 6.75 6.125 C7.39195313 7.21167969 7.39195313 7.21167969 8.046875 8.3203125 C8.51867187 9.15175781 8.51867187 9.15175781 9 10 C5.32408105 8.9789114 4.0660202 8.08564783 1.6875 5 C0 2 0 2 0 0 Z " fill="#391E2A" transform="translate(75,44)"/>
<path d="M0 0 C2.4375 0.25 2.4375 0.25 5 1 C5.66 1.99 6.32 2.98 7 4 C6.236875 3.9175 5.47375 3.835 4.6875 3.75 C1.85416667 3.70833333 1.85416667 3.70833333 0.1875 6 C-0.204375 6.66 -0.59625 7.32 -1 8 C-1.04241723 5.66705225 -1.04092937 3.33297433 -1 1 C-0.67 0.67 -0.34 0.34 0 0 Z " fill="#341A27" transform="translate(55,24)"/>
<path d="M0 0 C0.66 0 1.32 0 2 0 C2.33 2.97 2.66 5.94 3 9 C1.68 8.67 0.36 8.34 -1 8 C-0.67 5.36 -0.34 2.72 0 0 Z " fill="#E9732F" transform="translate(178,216)"/>
<path d="M0 0 C2.475 0.99 2.475 0.99 5 2 C5 2.99 5 3.98 5 5 C3.02 5 1.04 5 -1 5 C-0.67 3.35 -0.34 1.7 0 0 Z " fill="#FEDB72" transform="translate(94,167)"/>
<path d="M0 0 C1.30194786 3.90584359 0.70818927 5.28654507 -1 9 C-2.8829788 10.91794127 -4.82572501 12.39292718 -7 14 C-4.66666667 9.33333333 -2.33333333 4.66666667 0 0 Z " fill="#DB7741" transform="translate(56,136)"/>
<path d="M0 0 C0.66 0.33 1.32 0.66 2 1 C0.35 3.64 -1.3 6.28 -3 9 C-5 6 -5 6 -5 4 C-4.34 4 -3.68 4 -3 4 C-2.67 3.01 -2.34 2.02 -2 1 C-1.34 0.67 -0.68 0.34 0 0 Z " fill="#F19147" transform="translate(206,85)"/>
<path d="M0 0 C0.66 0 1.32 0 2 0 C2.66 1.32 3.32 2.64 4 4 C1.69 4 -0.62 4 -3 4 C-3 4.66 -3 5.32 -3 6 C-3.66 6 -4.32 6 -5 6 C-5 4.68 -5 3.36 -5 2 C-3.35 2 -1.7 2 0 2 C0 1.34 0 0.68 0 0 Z " fill="#291323" transform="translate(71,81)"/>
<path d="M0 0 C0.33 0.99 0.66 1.98 1 3 C-0.40445835 5.2636564 -2.1967913 7.0208685 -4 9 C-4.66 8.67 -5.32 8.34 -6 8 C-3.375 2.25 -3.375 2.25 0 0 Z " fill="#C6C2DF" transform="translate(83,147)"/>
<path d="M0 0 C0.66 0.33 1.32 0.66 2 1 C-0.97 3.97 -3.94 6.94 -7 10 C-7.33 9.34 -7.66 8.68 -8 8 C-3.375 2.25 -3.375 2.25 0 0 Z " fill="#35131E" transform="translate(157,142)"/>
<path d="M0 0 C0.66 0.33 1.32 0.66 2 1 C0.73046875 2.46484375 -0.5390625 3.9296875 -1.80859375 5.39453125 C-3.20871231 7.10712971 -3.20871231 7.10712971 -4 10 C-4.99 10.33 -5.98 10.66 -7 11 C-5.5140084 6.40693504 -3.14985318 3.56430755 0 0 Z " fill="#D56E3F" transform="translate(86,196)"/>
<path d="M0 0 C2.4375 0.8125 2.4375 0.8125 5 2 C5.33 2.99 5.66 3.98 6 5 C6.99 5.33 7.98 5.66 9 6 C2.25 5.25 2.25 5.25 0 3 C0 2.01 0 1.02 0 0 Z " fill="#3B2A36" transform="translate(114,176)"/>
<path d="M0 0 C2.4375 1.1875 2.4375 1.1875 5 3 C5.8125 5.6875 5.8125 5.6875 6 8 C3.5625 7.375 3.5625 7.375 1 6 C0.1875 2.875 0.1875 2.875 0 0 Z " fill="#EAE7EF" transform="translate(173,150)"/>
<path d="M0 0 C0.66 0.33 1.32 0.66 2 1 C-0.97 3.97 -3.94 6.94 -7 10 C-7 6.04435836 -5.59478606 4.89133304 -3 2 C-2.01 1.34 -1.02 0.68 0 0 Z " fill="#FEF1D2" transform="translate(156,117)"/>
<path d="M0 0 C1.32 0.33 2.64 0.66 4 1 C0.535 3.97 0.535 3.97 -3 7 C-3.66 6.34 -4.32 5.68 -5 5 C-2.75 2.4375 -2.75 2.4375 0 0 Z " fill="#403242" transform="translate(166,231)"/>
<path d="M0 0 C2.1640625 0.2421875 2.1640625 0.2421875 4.625 0.875 C5.44226563 1.07867187 6.25953125 1.28234375 7.1015625 1.4921875 C8.04128906 1.74355469 8.04128906 1.74355469 9 2 C5.72079119 3.95881942 5.23826396 4.05559492 1.25 3.125 C0.1775 2.75375 -0.895 2.3825 -2 2 C-1.34 1.34 -0.68 0.68 0 0 Z " fill="#F6CEB3" transform="translate(81,185)"/>
<path d="M0 0 C1.65 0 3.3 0 5 0 C4.34 0.66 3.68 1.32 3 2 C2.3574765 4.06874034 2.3574765 4.06874034 2 6 C0.68 5.67 -0.64 5.34 -2 5 C-1.34 3.35 -0.68 1.7 0 0 Z " fill="#F9B24C" transform="translate(91,166)"/>
<path d="M0 0 C0.75 1.75 0.75 1.75 1 4 C-0.75 6.25 -0.75 6.25 -3 8 C-3.99 8 -4.98 8 -6 8 C-6 6 -6 6 -3.5625 3.4375 C-2.716875 2.633125 -1.87125 1.82875 -1 1 C-0.67 0.67 -0.34 0.34 0 0 Z " fill="#341A25" transform="translate(190,91)"/>
<path d="M0 0 C1.32 0.66 2.64 1.32 4 2 C3.01 4.64 2.02 7.28 1 10 C-0.80411967 7.24075815 -1.0127245 6.11027897 -0.625 2.75 C-0.41875 1.8425 -0.2125 0.935 0 0 Z " fill="#40272B" transform="translate(191,84)"/>
<path d="M0 0 C0.33 0.99 0.66 1.98 1 3 C1.66 3.33 2.32 3.66 3 4 C-1.51617599 4.07654536 -5.59085217 4.10228696 -10 3 C-10 2.67 -10 2.34 -10 2 C-9.04287109 1.90912109 -9.04287109 1.90912109 -8.06640625 1.81640625 C-6.82697266 1.69072266 -6.82697266 1.69072266 -5.5625 1.5625 C-4.73878906 1.48128906 -3.91507813 1.40007812 -3.06640625 1.31640625 C-1.01337975 1.21069185 -1.01337975 1.21069185 0 0 Z " fill="#EE823B" transform="translate(146,75)"/>
<path d="M0 0 C-0.99 1.485 -0.99 1.485 -2 3 C-5.625 3.1875 -5.625 3.1875 -9 3 C-9 2.34 -9 1.68 -9 1 C-5.8035914 -0.06546953 -3.34252724 -0.07427838 0 0 Z " fill="#DF9F81" transform="translate(119,197)"/>
<path d="M0 0 C0.99 0 1.98 0 3 0 C1.83857315 4.35535069 0.92300495 6.64619703 -3 9 C-3.66 8.67 -4.32 8.34 -5 8 C-4.0409375 7.13375 -4.0409375 7.13375 -3.0625 6.25 C-1.01776132 4.01937599 -0.41794801 2.92563609 0 0 Z " fill="#4E2428" transform="translate(171,164)"/>
<path d="M0 0 C0.66 0.33 1.32 0.66 2 1 C2 3.64 2 6.28 2 9 C1.01 9.495 1.01 9.495 0 10 C-0.19412181 8.52168779 -0.38012131 7.04230684 -0.5625 5.5625 C-0.66691406 4.73878906 -0.77132812 3.91507813 -0.87890625 3.06640625 C-0.91886719 2.38449219 -0.95882812 1.70257813 -1 1 C-0.67 0.67 -0.34 0.34 0 0 Z " fill="#321E31" transform="translate(179,151)"/>
<path d="M0 0 C1.75098126 2.62647188 3.38731308 5.28775382 5 8 C3.68 8 2.36 8 1 8 C0 7 0 7 -0.0625 3.4375 C-0.041875 2.303125 -0.02125 1.16875 0 0 Z " fill="#B7552E" transform="translate(150,163)"/>
<path d="M0 0 C0.33 0 0.66 0 1 0 C2 3 3 6 4 9 C2.35 8.67 0.7 8.34 -1 8 C-0.67 5.36 -0.34 2.72 0 0 Z " fill="#DA7B42" transform="translate(72,65)"/>
<path d="M0 0 C0.66 0.66 1.32 1.32 2 2 C0.68 4.31 -0.64 6.62 -2 9 C-3 6 -3 6 -2 3 C-2.66 2.67 -3.32 2.34 -4 2 C-2.68 1.34 -1.36 0.68 0 0 Z " fill="#C75F37" transform="translate(177,53)"/>
<path d="M0 0 C0.66 0.33 1.32 0.66 2 1 C1.54625 1.7425 1.0925 2.485 0.625 3.25 C-0.68640796 5.46930578 -1.88280803 7.67967822 -3 10 C-3.75 7.8125 -3.75 7.8125 -4 5 C-2.0625 2.1875 -2.0625 2.1875 0 0 Z " fill="#392031" transform="translate(89,215)"/>
<path d="M0 0 C2 1 2 1 3.25 3.3125 C4 6 4 6 3.125 8.3125 C2.568125 9.1478125 2.568125 9.1478125 2 10 C-0.09350689 6.5980513 -0.17942163 3.94727588 0 0 Z " fill="#E79446" transform="translate(47,65)"/>
<path d="M0 0 C0.33 0 0.66 0 1 0 C1 2.97 1 5.94 1 9 C0.34 8.01 -0.32 7.02 -1 6 C-1.66 6 -2.32 6 -3 6 C-2.42655063 3.13275314 -2.1385485 2.1385485 0 0 Z " fill="#E5A15E" transform="translate(212,66)"/>
<path d="M0 0 C0 0.99 0 1.98 0 3 C-1 4 -1 4 -4.0625 4.0625 C-5.5165625 4.0315625 -5.5165625 4.0315625 -7 4 C-7 3.34 -7 2.68 -7 2 C-4.69 1.34 -2.38 0.68 0 0 Z " fill="#381F2D" transform="translate(164,191)"/>
<path d="M0 0 C0.33 0.66 0.66 1.32 1 2 C1.66 2.33 2.32 2.66 3 3 C3 3.66 3 4.32 3 5 C1.02 5.33 -0.96 5.66 -3 6 C-2.01 4.02 -1.02 2.04 0 0 Z " fill="#E9B7A1" transform="translate(59,177)"/>
<path d="M0 0 C-0.33 0.99 -0.66 1.98 -1 3 C-3.3125 3.625 -3.3125 3.625 -6 4 C-6.99 3.34 -7.98 2.68 -9 2 C-3.375 0 -3.375 0 0 0 Z " fill="#261825" transform="translate(142,177)"/>
<path d="M0 0 C0.33 0.66 0.66 1.32 1 2 C-0.32 3.65 -1.64 5.3 -3 7 C-3.99 6.67 -4.98 6.34 -6 6 C-5.34 6 -4.68 6 -4 6 C-4.33 5.01 -4.66 4.02 -5 3 C-3.35 2.01 -1.7 1.02 0 0 Z " fill="#F6D4B8" transform="translate(89,84)"/>
<path d="M0 0 C0.433125 0.9590625 0.433125 0.9590625 0.875 1.9375 C1.82823451 4.15206079 1.82823451 4.15206079 4 5 C2.1875 6.0625 2.1875 6.0625 0 7 C-0.99 6.67 -1.98 6.34 -3 6 C-2.34 5.34 -1.68 4.68 -1 4 C-0.3574765 1.93125966 -0.3574765 1.93125966 0 0 Z " fill="#D87635" transform="translate(112,72)"/>
<path d="M0 0 C0.33 0.99 0.66 1.98 1 3 C-0.4375 5.1875 -0.4375 5.1875 -2 7 C-3.32 6.67 -4.64 6.34 -6 6 C-5.01 5.34 -4.02 4.68 -3 4 C-2.67 3.01 -2.34 2.02 -2 1 C-1.34 0.67 -0.68 0.34 0 0 Z " fill="#E36B25" transform="translate(168,167)"/>
<path d="M0 0 C2.91227269 3.28804981 4.49701212 5.59885603 5 10 C2.9754262 8.06745228 1.57894208 6.36841312 0 4 C0 2.68 0 1.36 0 0 Z " fill="#F7D1A0" transform="translate(52,74)"/>
<path d="M0 0 C0.99 0.33 1.98 0.66 3 1 C4.1875 3.5625 4.1875 3.5625 5 6 C4.34 6.66 3.68 7.32 3 8 C0 2.25 0 2.25 0 0 Z " fill="#D16B3B" transform="translate(81,53)"/>
</svg>
